<svg width="142" height="26" fill="none" xmlns="http://www.w3.org/2000/svg"><path d="M11.367 11.781H9.325v2.05h2.042v-2.05zm-2.807 0H6.52v2.05h2.04v-2.05zm5.615-2.821h-2.042v2.05h2.042V8.96zm-2.808 0H9.325v2.05h2.042V8.96zm-2.807 0H6.52v2.05h2.04V8.96zm-2.807 0H3.711v2.05h2.042V8.96z" fill="#E50141"/><path d="M14.175 6.145h-2.042v2.049h2.042v-2.05zm-2.808 0H9.325v2.049h2.042v-2.05z" fill="#585857"/><path d="M8.56 6.145H6.52v2.049h2.04v-2.05zm-2.807 0H3.711v2.049h2.042v-2.05zm-2.809 0H.902v2.049h2.042v-2.05z" fill="#67C1BF"/><path d="M14.175 3.326h-2.042v2.05h2.042v-2.05zm-2.808 0H9.325v2.05h2.042v-2.05z" fill="#585857"/><path d="M8.56 3.326H6.52v2.05h2.04v-2.05zm-2.807 0H3.711v2.05h2.042v-2.05zm-2.809 0H.902v2.05h2.042v-2.05z" fill="#67C1BF"/><path d="M11.367.508H9.325v2.05h2.042V.507z" fill="#585857"/><path d="M8.56.508H6.52v2.05h2.04V.507zm-2.807 0H3.711v2.05h2.042V.507z" fill="#67C1BF"/><path d="M71.097 8.193v12.809c0 1.28-.766 2.562-2.297 2.562h-6.765v-3.075h4.212c.638 0 .766-.256.766-.768v-.896h-3.446c-1.532 0-2.297-1.281-2.297-2.562V8.196l4.084-.002v7.3c0 .641.255.77.766.77h.893v-8.07h4.084zm-19.144 0c-1.532 0-2.298 1.281-2.298 2.562v12.808h4.084l.002-6.403h1.657v6.404h4.084V8.194h-7.53zm3.445 6.404H53.74v-3.074c0-.64.256-.765.766-.765l.893-.003v3.842zM47.87 18.44v5.124h-4.085V17.16h-.893c-.51 0-.766.128-.766.769v5.633h-4.084l.002-5.12c0-1.282.636-2.434 1.658-2.566-1.022-.125-1.66-1.278-1.658-2.558l-.002-5.124h4.084v6.404h.893c.511 0 .766-.128.766-.769V8.193h4.085v5.124c0 1.28-.638 2.433-1.66 2.559 1.022.13 1.661 1.284 1.66 2.565zm-14.55-3.843h2.55v2.562h-2.55v3.323l2.935.008v3.073h-7.02V8.196l7.02-.003v3.074H33.32v3.33zm-8.169-6.404h-7.02v15.369h4.084v-4.098h2.936c1.532 0 2.298-1.28 2.298-2.561v-6.148c0-1.281-.766-2.563-2.298-2.562zm-1.276 7.941c0 .641-.255.769-.766.769h-.893c-.002-.001-.002-6.148-.002-6.148h.895c.51 0 .766.128.766.769v4.61z" fill="#1D1E1B"/><path d="M80.75 15V8.41h5.59V15h-1.53V9.7h-2.53V15h-1.53zm6.36 0l2.59-6.62h1.26L93.69 15h-1.64l-.63-1.57h-2.14l-.6 1.57h-1.57zm2.6-2.79h1.25l-.31-.91c-.15-.45-.23-.73-.28-.94h-.02c-.05.22-.14.5-.31.95l-.33.9zM94.46 15V8.41h1.84c.59 0 1.1.08 1.51.27.74.34 1.15 1 1.15 1.94 0 .76-.33 1.61-1.37 2-.38.14-.85.22-1.43.22h-.17V15h-1.53zm1.53-3.39h.26c.26 0 .48-.03.65-.11.32-.15.47-.46.47-.88 0-.34-.14-.66-.45-.84-.17-.1-.4-.14-.7-.14h-.23v1.97zm5.503 3.39V9.7h-1.93V8.41h5.54l-.39 1.29h-1.69V15h-1.53zm4.364 0V8.41h1.53V11h2.83V8.41h1.53V15h-1.53v-2.7h-2.83V15h-1.53zm7.393 0V8.41h3.96l-.39 1.29h-2.04v1.33h2.07v1.29h-2.07v1.39h2.41V15h-3.94zm5.264 0V8.41h1.84c.59 0 1.1.08 1.51.27.74.34 1.15 1 1.15 1.94 0 .76-.33 1.61-1.37 2-.38.14-.85.22-1.43.22h-.17V15h-1.53zm1.53-3.39h.26c.26 0 .48-.03.65-.11.32-.15.47-.46.47-.88 0-.34-.14-.66-.45-.84-.17-.1-.4-.14-.7-.14h-.23v1.97zm6.121 3.39V8.41h1.53l2.06 3.21c.18.29.3.51.45.82h.03c-.04-.34-.05-.74-.05-1.1V8.41h1.52V15h-1.42l-2.15-3.35c-.18-.29-.32-.54-.48-.84h-.03c.05.31.06.68.06.96V15h-1.52zm6.25-1.27v-.84h3.44v.84h-3.44zm1.72-1.36c-1.04 0-1.77-.72-1.77-1.74s.73-1.74 1.77-1.74 1.77.72 1.77 1.74-.73 1.74-1.77 1.74zm0-.92c.41 0 .63-.35.63-.82s-.22-.82-.63-.82c-.41 0-.63.35-.63.82s.22.82.63.82zm4.639 3.55V9.91l-1.51.64-.5-1.17 2.38-1.02h1.12V15h-1.49zM85.81 22.34l.42 1.2a4.6 4.6 0 01-2.27.56c-2.28 0-3.46-1.4-3.46-3.33 0-1.89 1.4-3.43 3.63-3.43.74 0 1.34.12 1.8.31v1.4c-.55-.29-1.14-.44-1.76-.44-1.42 0-2.04 1.01-2.04 2.14 0 1.23.78 2.08 2.02 2.08.69 0 1.17-.2 1.66-.49zM90.893 24v-5.09l-1.51.64-.5-1.17 2.38-1.02h1.12V24h-1.49zm4.677.1c-.63 0-1.2-.12-1.71-.37l.37-1.19c.38.21.84.35 1.29.35.92 0 1.41-.46 1.57-1.54h-.01c-.38.27-.86.39-1.35.39-1.12 0-2.05-.65-2.05-2.06 0-1.43 1.04-2.34 2.43-2.34 1.47 0 2.58.9 2.58 3.12 0 2.33-1.04 3.64-3.12 3.64zm.52-3.57c.42 0 .8-.21 1.04-.44-.01-.87-.42-1.54-1.06-1.54-.5 0-.83.38-.83 1.01 0 .64.32.97.85.97zm5.291 3.57c-.63 0-1.2-.12-1.71-.37l.37-1.19c.38.21.84.35 1.29.35.92 0 1.41-.46 1.57-1.54h-.01c-.38.27-.86.39-1.35.39-1.12 0-2.05-.65-2.05-2.06 0-1.43 1.04-2.34 2.43-2.34 1.47 0 2.58.9 2.58 3.12 0 2.33-1.04 3.64-3.12 3.64zm.52-3.57c.42 0 .8-.21 1.04-.44-.01-.87-.42-1.54-1.06-1.54-.5 0-.83.38-.83 1.01 0 .64.32.97.85.97zm3.25 3.47c.26-3.19 3.27-3.46 3.27-4.68 0-.53-.45-.71-.91-.71-.68 0-1.22.22-1.76.46l-.38-1.17c.61-.27 1.41-.56 2.4-.56 1.52 0 2.25.74 2.25 1.81 0 1.78-2.44 2.43-2.87 3.56h2.99V24h-4.99zm8.236 0v-6.59h4.06l-.39 1.29h-2.14V24h-1.53zm7.964.1c-2.01 0-3.4-1.38-3.4-3.38s1.39-3.38 3.4-3.38 3.4 1.38 3.4 3.38-1.39 3.38-3.4 3.38zm0-1.27c1.04 0 1.77-.71 1.77-2.11s-.73-2.11-1.77-2.11-1.77.71-1.77 2.11.73 2.11 1.77 2.11zm4.203 3.07v-3.2h.42c.82-.93 1.34-2.72 1.76-5.29h3.72v5.29h.95v3.2h-1.47V24h-3.91v1.9h-1.47zm4.37-3.2v-4.06h-1.02c-.24 1.61-.67 3.09-1.28 4.04v.02h2.3zm2.801 1.3l2.59-6.62h1.26l2.73 6.62h-1.64l-.63-1.57h-2.14l-.6 1.57h-1.57zm2.6-2.79h1.25l-.31-.91c-.15-.45-.23-.73-.28-.94h-.02c-.05.22-.14.5-.31.95l-.33.9z" fill="#3E3E40"/></svg>