<svg width="80" height="80" fill="none" xmlns="http://www.w3.org/2000/svg"><g clip-path="url(#clip0_2561_6029)" fill="#fff"><path d="M57.95 52.45h11.005l.13 2.663h2.664v-2.561h2.784v10.952l.033-.031-2.792.035v-2.683h-2.657v2.65h2.69v2.7l-2.82.178v2.599l-2.645.126v2.709h5.378l.134 2.773h2.712l-.033-.03v2.712l-2.683.13-.126 2.62H63.51v-2.699l-.033.03h2.684v-2.795h-2.684l.032.032v-5.455H49.658v2.69l.03-.032H46.99l-.151 2.763H44.13l.03.034c-.01-2.773-.023-5.547-.034-8.32h2.683v-2.656h-2.651v2.688h-2.812V63.57H38.68l-.125 2.596h-2.687v-5.457l-.031.031h5.56v-5.56l-.032.032h2.71c.054 1.004.1 1.817.15 2.733h2.702v2.659h8.314v-5.342l2.74-.133v-2.712l-.03.033zm8.229 5.631h-8.093v8.05h8.093v-8.05zM49.79 63.566v2.568h2.528v-2.568H49.79zM27.548 5.467h8.235l.134-2.72 2.637-.127.125-2.62h2.666v2.564h2.711c.05-.78.1-1.6.16-2.532h10.968v2.665l.034-.03h-8.192v5.424h2.597l.112-2.562h2.64l.13 2.697h2.712l-.033-.03v5.557l.034-.03h-2.796v5.559l.031-.032h-2.71l-.148-2.73h-2.7v-2.706l-2.698-.17-.113-2.586h-2.617v8.193h2.696v2.708l2.761.152v2.7l-5.559-.033.032.032v-2.684H38.6v2.684l.032-.032h-5.529v-2.764l-.031.032h2.762v-2.795h2.685v-2.734h-2.685v-2.814h2.7V11.06h-5.429v5.457l-2.797-.03.033.03v-5.456H24.86l-.126 2.595h-2.62v-5.37h5.467V5.435l-.032.032z"/><path d="M52.425 38.594h2.705l.134 2.714 2.686.135v11.008l.031-.034h-2.827v-8.185H49.69v2.688h-2.767v2.767l-2.791.002v-2.683h-2.657v2.65h2.689v2.705l-2.8.153v2.699l.032-.032H38.69l-.153 2.714-2.7.144v2.702l.031-.032h-2.795l.031.032v-2.815h-2.698V55.26l2.665-.129v-2.713h2.767v-2.766h2.852v-5.546h2.608v-2.733H35.92l-.133-2.744h-2.715c.01-.932.022-1.863.033-2.795l-.031.031h2.683V33.07h-2.683l.031.032v-5.577h5.528v-2.747l-.031.032h2.796l-.032-.032v2.708c1.034.056 1.847.1 2.797.153v2.698H41.4v5.525h-2.683v2.657h2.651v-2.69l11.085.036-.033-.03.037 2.791h-2.683v2.656h2.65v-2.688zm-8.178.082v5.361h2.56v-5.36h-2.56zm-41.576-.043h2.71l.13-2.72 2.666-.128V22.15H19.25v2.66l.033-.03h-2.796v2.795l.032-.032-2.792.035v-2.682H11.07v2.65h2.689l-.005 2.795h-2.682v2.731h2.685v2.703l-2.69.161v8.192h2.69v8.289h2.761l-.03 2.797.03-.033h-2.705l-.135 2.687h-5.45v-5.449l-.033.031h2.683v-2.795H8.196l.032.031V46.89H5.432l.033.03v-2.772H.002v-2.735h2.701v-2.812l-.032.032z"/><path d="M19.25 24.81h2.773v-8.222h2.711l.125 2.6h2.609l.168-2.67h2.706l-.033-.03v2.764h2.797l-.033 2.795.031-.032h-5.427v2.71l2.567.163v2.67H24.88v2.702l2.617.126.134 2.716h5.474l-.031-.031v2.795l.031-.031H22.1l-.14 2.797h-2.706v-2.711l-2.767-.15v-2.7h2.685v-2.733h-2.685l.034-2.795-.032.032h2.796v-2.796l-.034.03zM0 19.186V.001h19.187v19.185H0zm16.384-2.761V2.804H2.804v13.62h13.58zM79.997-.001v19.185H60.81V-.001h19.187zm-2.764 16.42V2.764H63.575V16.42h13.657zM19.18 79.999H.007V60.814h19.171v19.185zM16.421 63.57H2.765v13.657h13.657V63.57z"/><path d="M55.184 13.752h2.755v8.235h5.538v8.349l.033-.03h-5.563v-2.761h2.682v-2.657h-2.65v2.689H55.16v-5.53h-2.738l.03-2.797-.031.031h2.796v-5.56l-.034.031zM30.34 71.764h-2.795l.031.033v-2.683H24.78v2.683l.031-.033h-2.694v-8.19h2.618l.112 2.56h2.73v-5.423l-.032.03h5.56l-.032-.031v5.47l-2.764.157v5.46l.03-.033zM8.229 52.418H5.453v5.46H.039V46.92h5.425l-.033-.03v2.795h2.796l-.032-.031v2.795l.034-.03z"/><path d="M27.578 60.71h-5.465l-.151-2.7h-5.443v-2.83l-.03.034h5.526v-2.795h5.563l-.033 8.323.033-.031zM44.13 74.527V77.3h-5.447l-.13 2.691h-5.447V74.53l-.034.03h2.765v-2.796h5.474l.146 2.797h2.703l-.03-.033zm22.147-44.193v-8.216h5.445l.127 2.591h2.64l.124-2.597h2.623v5.37h-8.11l-.18 2.82h-2.7l.031.032zm8.256 33.17h2.715l.13 2.685 2.617.127v2.64l-2.598.123v2.667h2.563v5.444h-2.556l-.167-2.66h-2.704l.034.03V63.475l-.034.03zm2.762-30.431v2.709l2.703.13v5.448h-5.463l.031.033v-2.795H71.77l.034.03v-2.702l2.666-.143.152-2.678h2.705l-.032-.032z"/><path d="M69.007 38.632l2.797-.003-.034-.03v2.795h2.796l-.03-.033v2.704l-2.669.144-.152 2.677h-2.706l.032.032v-2.696l-2.766-.15v-2.709l-.033.031h2.796v-2.795l-.031.033zm-5.531-5.562l-.002 5.556.032-.032h-2.705l-.138-2.76H52.42l.033.03-.03-2.797 11.087.034-.034-.031zM27.58 5.434h-5.46V2.745l2.613-.126.126-2.62h8.109v2.613h-5.42v2.854l.032-.032zm33.165 69.094h-2.773v5.463h-2.735V77.29h-2.812l.032.032-.002-2.792-.033.031h2.705l.158-2.687h5.43v2.687l.03-.033zM80 49.792v10.85h-2.605v-10.85H80z"/><path d="M69.009 46.885v2.697h-8.196v-5.36h2.588l.17 2.695h5.47l-.032-.032zM27.572 77.289h-5.44v-2.664l2.679-.155v-2.707l-.03.033h2.795l-.03-.033-.006 5.558.032-.032zM55.184 2.698h2.687v5.498h-2.687l.033.03V2.667l-.033.03zM2.703 38.6H.01v-5.413h2.66v5.445l.032-.032zm60.771.027l2.799.005-.031-.034v2.796l.033-.031h-2.77v-2.768l-.031.032zm13.918 8.195v-2.596h2.603v2.596h-2.603zm-11.119-8.191v-2.685h2.734v2.685l.03-.033h-2.795l.031.033zm11.054-5.525v-2.689h2.65v2.656h-2.682l.032.033zm-11.081-2.804v2.769h-2.77l.034.03v-2.795l-.033.03 2.8-.002-.031-.032zM5.35 30.258H2.78v-2.603h2.57v2.603zm-.008-5.528H2.787v-2.596h2.555v2.595zm27.764 49.8h-2.767v-2.767l-.03.033 2.794-.033-.03 2.797.033-.03zm19.349 0h-2.767v-2.767l-.03.033h2.763v2.764l.034-.03zm11.056 2.763h-2.766v-2.767l-.031.034h2.796l-.032-.032v2.796l.033-.031zm-35.971.029h2.689v2.65h-2.657V77.29l-.032.032zm24.884-.034v2.689h-2.65V77.32h2.682l-.032-.032z"/><path d="M35.868 71.796h-2.796v-2.684h2.796v2.684zm13.789-22.111V46.89h2.684v2.795h-2.684z"/><path d="M46.894 49.653h2.795v2.796h-2.795v-2.796z"/><path d="M49.657 55.212v-2.795h2.684v2.795h-2.684z"/><path d="M46.894 57.976v-2.795h2.795v2.795h-2.795zm13.914 5.394v-2.562h2.603v2.562h-2.603zm-8.355-30.269h-8.324v-2.795h8.324V33.1zm-5.559-8.323h2.795v2.684h-2.795v-2.684z"/><path d="M49.657 24.81v-2.795h2.796v2.795h-2.796zm-5.528-5.527v-2.796h2.796v2.796h-2.796zm-11.057 0v-2.796h2.796v2.796h-2.796zM27.544 52.45v-5.528H24.78v-2.714l-2.666-.129v-2.665h2.582l.178-2.815h8.23v5.563h-2.792v-2.683h-2.657v2.65h2.689v5.525h2.76v2.796h-5.56zm-5.496-2.797v2.796h-5.56v-2.796h5.56zm-8.324-5.495v-2.796h2.795l-.035 2.793.032-.032-2.792.035z"/><path d="M16.483 44.154h2.69v2.65h-2.657v-2.682l-.033.032zm.005-2.76v-2.795h2.796v2.795h-2.796zm8.324 5.496v2.795h-2.795V46.89h2.795zm11.056 2.794h-2.796v-2.683h2.796v2.683zM16.52 30.306V33.1h-2.796v-2.795h2.795zM13.621 13.66H5.564V5.564h8.057v8.098zm60.812 0h-8.057V5.564h8.057v8.098zM5.528 74.464v-8.129h8.13v8.13h-8.13z"/></g><defs><clipPath id="clip0_2561_6029"><path fill="#fff" transform="translate(0 -.001)" d="M0 0h80v80H0z"/></clipPath></defs></svg>