<svg width="46" height="56" fill="none" xmlns="http://www.w3.org/2000/svg"><path d="M22.66 55.999c-6.007-.009-11.766-2.44-16.014-6.764C2.398 44.912.008 39.051 0 32.938h6.478c0 4.368 1.705 8.558 4.74 11.647a16.045 16.045 0 0011.446 4.825c4.293 0 8.41-1.736 11.445-4.825a16.621 16.621 0 004.74-11.648h6.473c-.009 6.114-2.399 11.975-6.647 16.298C34.428 53.558 28.669 55.99 22.662 56zM45.29 24.71h-6.477V9.563L24.476 19.617a3.193 3.193 0 01-3.662 0L6.478 9.557V24.71H0V3.3c0-.601.16-1.19.465-1.705A3.263 3.263 0 011.729.38a3.192 3.192 0 013.344.2l17.57 12.286L40.217.58a3.192 3.192 0 013.344-.2c.522.281.96.701 1.264 1.216.305.514.465 1.104.465 1.705v21.41z" fill="red"/></svg>