<svg width="72" height="24" fill="none" xmlns="http://www.w3.org/2000/svg"><path d="M11.367 11.781H9.325v2.05h2.042v-2.05zm-2.807 0H6.52v2.05h2.04v-2.05zm5.615-2.819h-2.042v2.05h2.042v-2.05zm-2.808 0H9.325v2.05h2.042v-2.05zm-2.807 0H6.52v2.05h2.04v-2.05zm-2.807 0H3.711v2.05h2.042v-2.05z" fill="#E50040"/><path d="M14.175 6.146h-2.042v2.049h2.042v-2.05zm-2.808 0H9.325v2.049h2.042v-2.05z" fill="#4E4E4E"/><path d="M8.56 6.146H6.52v2.049h2.04v-2.05zm-2.807 0H3.711v2.049h2.042v-2.05zm-2.809 0H.902v2.049h2.042v-2.05z" fill="#4FC7B5"/><path d="M14.175 3.327h-2.042v2.05h2.042v-2.05zm-2.808 0H9.325v2.05h2.042v-2.05z" fill="#4E4E4E"/><path d="M8.56 3.327H6.52v2.05h2.04v-2.05zm-2.807 0H3.711v2.05h2.042v-2.05zm-2.809 0H.902v2.05h2.042v-2.05z" fill="#4FC7B5"/><path d="M11.367.509H9.325v2.05h2.042V.508z" fill="#4E4E4E"/><path d="M8.56.509H6.52v2.05h2.04V.508zm-2.807 0H3.711v2.05h2.042V.508z" fill="#4FC7B5"/><path d="M71.097 8.193v12.809c0 1.28-.766 2.562-2.297 2.562h-6.765v-3.075h4.212c.638 0 .766-.256.766-.768v-.896h-3.446c-1.532 0-2.297-1.281-2.297-2.562V8.196l4.084-.002v7.3c0 .641.255.77.766.77h.893v-8.07h4.084zm-19.144 0c-1.532 0-2.298 1.281-2.298 2.562v12.808h4.084l.002-6.403h1.657v6.404h4.084V8.194h-7.53zm3.445 6.404H53.74v-3.074c0-.64.256-.765.766-.765l.893-.003v3.842zM47.87 18.44v5.124h-4.085V17.16h-.893c-.51 0-.766.128-.766.769v5.633h-4.084l.002-5.12c0-1.282.636-2.434 1.658-2.566-1.022-.125-1.66-1.278-1.658-2.558l-.002-5.124h4.084v6.404h.893c.511 0 .766-.128.766-.769V8.193h4.085v5.124c0 1.28-.638 2.433-1.66 2.559 1.022.13 1.661 1.284 1.66 2.565zm-14.55-3.843h2.55v2.562h-2.55v3.323l2.935.008v3.073h-7.02V8.196l7.02-.003v3.074H33.32v3.33zm-8.169-6.404h-7.02v15.369h4.084v-4.098h2.936c1.532 0 2.298-1.28 2.298-2.561v-6.148c0-1.281-.766-2.563-2.298-2.562zm-1.276 7.941c0 .641-.255.769-.766.769h-.893c-.002-.001-.002-6.148-.002-6.148h.895c.51 0 .766.128.766.769v4.61z" fill="#151515"/></svg>