<svg width="40" height="40" fill="none" xmlns="http://www.w3.org/2000/svg"><g clip-path="url(#clip0_2569_16942)" fill-rule="evenodd" clip-rule="evenodd"><path d="M20 40c11.046 0 20-8.954 20-20S31.046 0 20 0 0 8.954 0 20s8.954 20 20 20z" fill="#fff"/><path d="M28.56 15.685c.079-.372-.094-.58-.502-.58H26c-.471 0-.644.193-.785.476 0 0-1.113 2.25-2.466 3.666-.435.459-.656.596-.896.596-.193 0-.282-.152-.282-.566v-3.621c0-.507-.063-.656-.503-.656H17.77c-.252 0-.409.139-.409.328 0 .477.77.585.77 1.878v2.667c0 .537-.032.745-.299.745-.706 0-2.387-2.31-3.33-4.932-.188-.537-.392-.686-.926-.686h-2.058c-.298 0-.518.194-.518.477 0 .521.644 2.936 3.173 6.17C15.869 23.823 18.099 25 20.11 25c1.225 0 1.524-.194 1.524-.686v-1.669c0-.417.172-.596.424-.596.282 0 .781.086 1.947 1.178C25.387 24.479 25.482 25 26.235 25h2.31c.235 0 .455-.104.455-.477 0-.492-.675-1.371-1.712-2.414-.424-.537-1.115-1.118-1.335-1.386-.314-.313-.22-.492 0-.82 0 0 2.372-3.174 2.607-4.217z" fill="#151515"/></g><defs><clipPath id="clip0_2569_16942"><path fill="#fff" d="M0 0h40v40H0z"/></clipPath></defs></svg>