<svg width="40" height="40" fill="none" xmlns="http://www.w3.org/2000/svg"><g clip-path="url(#clip0_2569_16945)" fill-rule="evenodd" clip-rule="evenodd"><path d="M20 40c11.046 0 20-8.954 20-20S31.046 0 20 0 0 8.954 0 20s8.954 20 20 20z" fill="#fff"/><path d="M20.247 13c1.175.005 6.193.049 7.567.417.86.23 1.538.908 1.768 1.768C30 16.745 30 20 30 20s0 3.254-.418 4.814a2.504 2.504 0 01-1.768 1.768c-1.374.369-6.392.412-7.567.418h-.494c-1.176-.006-6.193-.05-7.567-.418a2.504 2.504 0 01-1.768-1.768c-.362-1.352-.41-3.976-.417-4.652v-.324c.006-.675.055-3.3.417-4.652.23-.86.908-1.538 1.768-1.768 1.374-.368 6.391-.412 7.567-.417h.494zM18 17v6l5.2-3-5.2-3z" fill="#151515"/></g><defs><clipPath id="clip0_2569_16945"><path fill="#fff" d="M0 0h40v40H0z"/></clipPath></defs></svg>