<svg width="142" height="26" viewBox="0 0 142 26" fill="none" xmlns="http://www.w3.org/2000/svg">
<path d="M11.3673 11.7812H9.3252V13.8307H11.3673V11.7812Z" fill="#E50141"/>
<path d="M8.56068 11.7812H6.51855V13.8307H8.56068V11.7812Z" fill="#E50141"/>
<path d="M14.1749 8.96094H12.1328V11.0104H14.1749V8.96094Z" fill="#E50141"/>
<path d="M11.3673 8.96094H9.3252V11.0104H11.3673V8.96094Z" fill="#E50141"/>
<path d="M8.56068 8.96094H6.51855V11.0104H8.56068V8.96094Z" fill="#E50141"/>
<path d="M5.75306 8.96094H3.71094V11.0104H5.75306V8.96094Z" fill="#E50141"/>
<path d="M14.1749 6.14453H12.1328V8.19397H14.1749V6.14453Z" fill="#585857"/>
<path d="M11.3673 6.14453H9.3252V8.19397H11.3673V6.14453Z" fill="#585857"/>
<path d="M8.56068 6.14453H6.51855V8.19397H8.56068V6.14453Z" fill="#67C1BF"/>
<path d="M5.75306 6.14453H3.71094V8.19397H5.75306V6.14453Z" fill="#67C1BF"/>
<path d="M2.94447 6.14453H0.902344V8.19397H2.94447V6.14453Z" fill="#67C1BF"/>
<path d="M14.1749 3.32617H12.1328V5.37561H14.1749V3.32617Z" fill="#585857"/>
<path d="M11.3673 3.32617H9.3252V5.37561H11.3673V3.32617Z" fill="#585857"/>
<path d="M8.56068 3.32617H6.51855V5.37561H8.56068V3.32617Z" fill="#67C1BF"/>
<path d="M5.75306 3.32617H3.71094V5.37561H5.75306V3.32617Z" fill="#67C1BF"/>
<path d="M2.94447 3.32617H0.902344V5.37561H2.94447V3.32617Z" fill="#67C1BF"/>
<path d="M11.3673 0.507812H9.3252V2.55726H11.3673V0.507812Z" fill="#585857"/>
<path d="M8.56068 0.507812H6.51855V2.55726H8.56068V0.507812Z" fill="#67C1BF"/>
<path d="M5.75306 0.507812H3.71094V2.55726H5.75306V0.507812Z" fill="#67C1BF"/>
<path d="M71.097 8.19336V21.0019C71.097 22.2828 70.3312 23.5637 68.7996 23.5637H62.0353V20.4895H66.247C66.8854 20.4895 67.0128 20.2334 67.0128 19.721V18.8246H63.5669C62.0353 18.8246 61.2695 17.5437 61.2695 16.2628V8.19579L65.3538 8.19385V15.4947C65.3538 16.135 65.609 16.2633 66.1196 16.2633H67.0128V8.19385H71.097V8.19336Z" fill="#1D1E1B"/>
<path d="M51.9527 8.19336C50.4211 8.19336 49.6553 9.47426 49.6553 10.7552V23.5627H53.739L53.741 17.1597H55.398V23.5637H59.4823V8.19336H51.9527ZM55.3985 14.5974H53.7395V11.5232C53.7395 10.883 53.9948 10.7581 54.5053 10.7581L55.3985 10.7547V14.5974Z" fill="#1D1E1B"/>
<path d="M47.8695 18.4406V23.5642H43.7852V17.1602H42.892C42.3815 17.1602 42.1262 17.2885 42.1262 17.9287V23.5623H38.042L38.0439 18.4411C38.0439 17.1602 38.6804 16.0076 39.7015 15.8763C38.6804 15.7514 38.0425 14.5984 38.0439 13.3175L38.042 8.19384H42.1262V14.5979H43.0194C43.53 14.5979 43.7852 14.47 43.7852 13.8293V8.19336H47.8695V13.317C47.8709 14.5979 47.2316 15.7504 46.2105 15.8759C47.2316 16.0066 47.8714 17.1597 47.8695 18.4406Z" fill="#1D1E1B"/>
<path d="M33.3196 14.5974H35.8698V17.1592H33.3196V20.4818L36.2549 20.4895V23.5632H29.2354V8.19628L36.2549 8.19336V11.267H33.3196V14.5974Z" fill="#1D1E1B"/>
<path d="M25.1514 8.19336L18.1318 8.19385V23.5618H22.2146V19.4643H25.1514C26.683 19.4643 27.4488 18.1834 27.4488 16.9025V10.7547C27.4488 9.47378 26.683 8.19239 25.1514 8.19336ZM23.8751 16.1345C23.8751 16.7752 23.6198 16.903 23.1093 16.903H22.2156C22.2141 16.902 22.2141 10.7552 22.2141 10.7552H23.1088C23.6193 10.7552 23.8746 10.8835 23.8746 11.5237L23.8751 16.1345Z" fill="#1D1E1B"/>
<path d="M80.75 15V8.41H86.34V15H84.81V9.7H82.28V15H80.75ZM87.1098 15L89.6998 8.38H90.9598L93.6898 15H92.0498L91.4198 13.43H89.2798L88.6798 15H87.1098ZM89.7098 12.21H90.9598L90.6498 11.3C90.4998 10.85 90.4198 10.57 90.3698 10.36H90.3498C90.2998 10.58 90.2098 10.86 90.0398 11.31L89.7098 12.21ZM94.4609 15V8.41H96.3009C96.8909 8.41 97.4009 8.49 97.8109 8.68C98.5509 9.02 98.9609 9.68 98.9609 10.62C98.9609 11.38 98.6309 12.23 97.5909 12.62C97.2109 12.76 96.7409 12.84 96.1609 12.84H95.9909V15H94.4609ZM95.9909 11.61H96.2509C96.5109 11.61 96.7309 11.58 96.9009 11.5C97.2209 11.35 97.3709 11.04 97.3709 10.62C97.3709 10.28 97.2309 9.96 96.9209 9.78C96.7509 9.68 96.5209 9.64 96.2209 9.64H95.9909V11.61ZM101.493 15V9.7H99.5629V8.41H105.103L104.713 9.7H103.023V15H101.493ZM105.857 15V8.41H107.387V11H110.217V8.41H111.747V15H110.217V12.3H107.387V15H105.857ZM113.25 15V8.41H117.21L116.82 9.7H114.78V11.03H116.85V12.32H114.78V13.71H117.19V15H113.25ZM118.514 15V8.41H120.354C120.944 8.41 121.454 8.49 121.864 8.68C122.604 9.02 123.014 9.68 123.014 10.62C123.014 11.38 122.684 12.23 121.644 12.62C121.264 12.76 120.794 12.84 120.214 12.84H120.044V15H118.514ZM120.044 11.61H120.304C120.564 11.61 120.784 11.58 120.954 11.5C121.274 11.35 121.424 11.04 121.424 10.62C121.424 10.28 121.284 9.96 120.974 9.78C120.804 9.68 120.574 9.64 120.274 9.64H120.044V11.61ZM126.165 15V8.41H127.695L129.755 11.62C129.935 11.91 130.055 12.13 130.205 12.44H130.235C130.195 12.1 130.185 11.7 130.185 11.34V8.41H131.705V15H130.285L128.135 11.65C127.955 11.36 127.815 11.11 127.655 10.81H127.625C127.675 11.12 127.685 11.49 127.685 11.77V15H126.165ZM132.415 13.73V12.89H135.855V13.73H132.415ZM134.135 12.37C133.095 12.37 132.365 11.65 132.365 10.63C132.365 9.61 133.095 8.89 134.135 8.89C135.175 8.89 135.905 9.61 135.905 10.63C135.905 11.65 135.175 12.37 134.135 12.37ZM134.135 11.45C134.545 11.45 134.765 11.1 134.765 10.63C134.765 10.16 134.545 9.81 134.135 9.81C133.725 9.81 133.505 10.16 133.505 10.63C133.505 11.1 133.725 11.45 134.135 11.45ZM138.774 15V9.91L137.264 10.55L136.764 9.38L139.144 8.36H140.264V15H138.774ZM85.81 22.34L86.23 23.54C85.42 23.98 84.66 24.1 83.96 24.1C81.68 24.1 80.5 22.7 80.5 20.77C80.5 18.88 81.9 17.34 84.13 17.34C84.87 17.34 85.47 17.46 85.93 17.65V19.05C85.38 18.76 84.79 18.61 84.17 18.61C82.75 18.61 82.13 19.62 82.13 20.75C82.13 21.98 82.91 22.83 84.15 22.83C84.84 22.83 85.32 22.63 85.81 22.34ZM90.8928 24V18.91L89.3828 19.55L88.8828 18.38L91.2628 17.36H92.3828V24H90.8928ZM95.5701 24.1C94.9401 24.1 94.3701 23.98 93.8601 23.73L94.2301 22.54C94.6101 22.75 95.0701 22.89 95.5201 22.89C96.4401 22.89 96.9301 22.43 97.0901 21.35H97.0801C96.7001 21.62 96.2201 21.74 95.7301 21.74C94.6101 21.74 93.6801 21.09 93.6801 19.68C93.6801 18.25 94.7201 17.34 96.1101 17.34C97.5801 17.34 98.6901 18.24 98.6901 20.46C98.6901 22.79 97.6501 24.1 95.5701 24.1ZM96.0901 20.53C96.5101 20.53 96.8901 20.32 97.1301 20.09C97.1201 19.22 96.7101 18.55 96.0701 18.55C95.5701 18.55 95.2401 18.93 95.2401 19.56C95.2401 20.2 95.5601 20.53 96.0901 20.53ZM101.381 24.1C100.751 24.1 100.181 23.98 99.6706 23.73L100.041 22.54C100.421 22.75 100.881 22.89 101.331 22.89C102.251 22.89 102.741 22.43 102.901 21.35H102.891C102.511 21.62 102.031 21.74 101.541 21.74C100.421 21.74 99.4906 21.09 99.4906 19.68C99.4906 18.25 100.531 17.34 101.921 17.34C103.391 17.34 104.501 18.24 104.501 20.46C104.501 22.79 103.461 24.1 101.381 24.1ZM101.901 20.53C102.321 20.53 102.701 20.32 102.941 20.09C102.931 19.22 102.521 18.55 101.881 18.55C101.381 18.55 101.051 18.93 101.051 19.56C101.051 20.2 101.371 20.53 101.901 20.53ZM105.151 24C105.411 20.81 108.421 20.54 108.421 19.32C108.421 18.79 107.971 18.61 107.511 18.61C106.831 18.61 106.291 18.83 105.751 19.07L105.371 17.9C105.981 17.63 106.781 17.34 107.771 17.34C109.291 17.34 110.021 18.08 110.021 19.15C110.021 20.93 107.581 21.58 107.151 22.71H110.141V24H105.151ZM113.387 24V17.41H117.447L117.057 18.7H114.917V24H113.387ZM121.351 24.1C119.341 24.1 117.951 22.72 117.951 20.72C117.951 18.72 119.341 17.34 121.351 17.34C123.361 17.34 124.751 18.72 124.751 20.72C124.751 22.72 123.361 24.1 121.351 24.1ZM121.351 22.83C122.391 22.83 123.121 22.12 123.121 20.72C123.121 19.32 122.391 18.61 121.351 18.61C120.311 18.61 119.581 19.32 119.581 20.72C119.581 22.12 120.311 22.83 121.351 22.83ZM125.554 25.9V22.7H125.974C126.794 21.77 127.314 19.98 127.734 17.41H131.454V22.7H132.404V25.9H130.934V24H127.024V25.9H125.554ZM129.924 22.7V18.64H128.904C128.664 20.25 128.234 21.73 127.624 22.68V22.7H129.924ZM132.725 24L135.315 17.38H136.575L139.305 24H137.665L137.035 22.43H134.895L134.295 24H132.725ZM135.325 21.21H136.575L136.265 20.3C136.115 19.85 136.035 19.57 135.985 19.36H135.965C135.915 19.58 135.825 19.86 135.655 20.31L135.325 21.21Z" fill="#3E3E40"/>
</svg>
