<svg width="72" height="24" viewBox="0 0 72 24" fill="none" xmlns="http://www.w3.org/2000/svg">
<path d="M11.3673 11.7812H9.3252V13.8307H11.3673V11.7812Z" fill="#E50040"/>
<path d="M8.56068 11.7812H6.51855V13.8307H8.56068V11.7812Z" fill="#E50040"/>
<path d="M14.1749 8.96191H12.1328V11.0114H14.1749V8.96191Z" fill="#E50040"/>
<path d="M11.3673 8.96191H9.3252V11.0114H11.3673V8.96191Z" fill="#E50040"/>
<path d="M8.56068 8.96191H6.51855V11.0114H8.56068V8.96191Z" fill="#E50040"/>
<path d="M5.75306 8.96191H3.71094V11.0114H5.75306V8.96191Z" fill="#E50040"/>
<path d="M14.1749 6.14551H12.1328V8.19495H14.1749V6.14551Z" fill="#4E4E4E"/>
<path d="M11.3673 6.14551H9.3252V8.19495H11.3673V6.14551Z" fill="#4E4E4E"/>
<path d="M8.56068 6.14551H6.51855V8.19495H8.56068V6.14551Z" fill="#4FC7B5"/>
<path d="M5.75306 6.14551H3.71094V8.19495H5.75306V6.14551Z" fill="#4FC7B5"/>
<path d="M2.94447 6.14551H0.902344V8.19495H2.94447V6.14551Z" fill="#4FC7B5"/>
<path d="M14.1749 3.32715H12.1328V5.37659H14.1749V3.32715Z" fill="#4E4E4E"/>
<path d="M11.3673 3.32715H9.3252V5.37659H11.3673V3.32715Z" fill="#4E4E4E"/>
<path d="M8.56068 3.32715H6.51855V5.37659H8.56068V3.32715Z" fill="#4FC7B5"/>
<path d="M5.75306 3.32715H3.71094V5.37659H5.75306V3.32715Z" fill="#4FC7B5"/>
<path d="M2.94447 3.32715H0.902344V5.37659H2.94447V3.32715Z" fill="#4FC7B5"/>
<path d="M11.3673 0.508789H9.3252V2.55823H11.3673V0.508789Z" fill="#4E4E4E"/>
<path d="M8.56068 0.508789H6.51855V2.55823H8.56068V0.508789Z" fill="#4FC7B5"/>
<path d="M5.75306 0.508789H3.71094V2.55823H5.75306V0.508789Z" fill="#4FC7B5"/>
<path d="M71.097 8.19336V21.0019C71.097 22.2828 70.3312 23.5637 68.7996 23.5637H62.0353V20.4895H66.247C66.8854 20.4895 67.0128 20.2334 67.0128 19.721V18.8246H63.5669C62.0353 18.8246 61.2695 17.5437 61.2695 16.2628V8.19579L65.3538 8.19385V15.4947C65.3538 16.135 65.609 16.2633 66.1196 16.2633H67.0128V8.19385H71.097V8.19336Z" fill="#151515"/>
<path d="M51.9527 8.19336C50.4211 8.19336 49.6553 9.47426 49.6553 10.7552V23.5627H53.739L53.741 17.1597H55.398V23.5637H59.4823V8.19336H51.9527ZM55.3985 14.5974H53.7395V11.5232C53.7395 10.883 53.9948 10.7581 54.5053 10.7581L55.3985 10.7547V14.5974Z" fill="#151515"/>
<path d="M47.8695 18.4406V23.5642H43.7852V17.1602H42.892C42.3815 17.1602 42.1262 17.2885 42.1262 17.9287V23.5623H38.042L38.0439 18.4411C38.0439 17.1602 38.6804 16.0076 39.7015 15.8763C38.6804 15.7514 38.0425 14.5984 38.0439 13.3175L38.042 8.19384H42.1262V14.5979H43.0194C43.53 14.5979 43.7852 14.47 43.7852 13.8293V8.19336H47.8695V13.317C47.8709 14.5979 47.2316 15.7504 46.2105 15.8759C47.2316 16.0066 47.8714 17.1597 47.8695 18.4406Z" fill="#151515"/>
<path d="M33.3196 14.5974H35.8698V17.1592H33.3196V20.4818L36.2549 20.4895V23.5632H29.2354V8.19628L36.2549 8.19336V11.267H33.3196V14.5974Z" fill="#151515"/>
<path d="M25.1514 8.19336L18.1318 8.19385V23.5618H22.2146V19.4643H25.1514C26.683 19.4643 27.4488 18.1834 27.4488 16.9025V10.7547C27.4488 9.47378 26.683 8.19239 25.1514 8.19336ZM23.8751 16.1345C23.8751 16.7752 23.6198 16.903 23.1093 16.903H22.2156C22.2141 16.902 22.2141 10.7552 22.2141 10.7552H23.1088C23.6193 10.7552 23.8746 10.8835 23.8746 11.5237L23.8751 16.1345Z" fill="#151515"/>
</svg>
