<svg width="40" height="40" viewBox="0 0 40 40" fill="none" xmlns="http://www.w3.org/2000/svg">
<g clip-path="url(#clip0_2569_16945)">
<path fill-rule="evenodd" clip-rule="evenodd" d="M20 40C31.0457 40 40 31.0457 40 20C40 8.9543 31.0457 0 20 0C8.9543 0 0 8.9543 0 20C0 31.0457 8.9543 40 20 40Z" fill="white"/>
<path fill-rule="evenodd" clip-rule="evenodd" d="M20.2473 13C21.4225 13.0052 26.4399 13.049 27.8139 13.4171C28.6744 13.6471 29.352 14.3249 29.582 15.1852C30 16.7451 30 19.9992 30 19.9992C30 19.9992 30 23.2534 29.582 24.8131C29.352 25.6735 28.6744 26.3514 27.8139 26.5812C26.4399 26.9495 21.4225 26.9933 20.2473 26.9985H19.7525C18.5774 26.9933 13.5601 26.9495 12.1861 26.5812C11.3256 26.3514 10.648 25.6735 10.418 24.8131C10.0557 23.4614 10.0074 20.8368 10.001 20.161V19.8374C10.0074 19.1615 10.0557 16.5371 10.418 15.1852C10.648 14.3249 11.3256 13.6471 12.1861 13.4171C13.5601 13.049 18.5774 13.0052 19.7525 13H20.2473ZM18 16.9991V22.9992L23.2 19.9993L18 16.9991Z" fill="#151515"/>
</g>
<defs>
<clipPath id="clip0_2569_16945">
<rect width="40" height="40" fill="white"/>
</clipPath>
</defs>
</svg>
