<svg width="46" height="44" viewBox="0 0 46 44" fill="none" xmlns="http://www.w3.org/2000/svg">
<mask id="mask0_1631_5555" style="mask-type:luminance" maskUnits="userSpaceOnUse" x="1" y="0" width="45" height="44">
<path d="M1.25 0H45.25V44H1.25V0Z" fill="white"/>
</mask>
<g mask="url(#mask0_1631_5555)">
<path d="M24.4866 20.2837C23.2636 20.5087 22.5286 21.1837 22.2836 22.5357C22.2836 22.7607 21.7936 23.2107 21.5496 23.4357L20.3256 22.3107H19.1016C19.3466 21.8607 19.3466 21.4107 19.5916 21.1847V20.7347C19.5916 20.5087 19.3466 20.0587 19.3466 19.8337C19.8366 19.8337 20.3256 19.6087 20.5706 19.6087C21.7936 20.0587 22.7736 19.6087 23.7526 18.9337C22.7736 18.0337 21.7936 17.5827 20.5706 18.0337C20.3256 18.2577 19.8356 18.0337 19.3466 17.8077C19.3466 17.3577 19.5916 16.9077 19.5916 16.6817C19.5916 16.2317 19.3466 15.7817 19.1016 15.3317C19.5916 15.3317 20.0816 15.1067 20.5706 15.1067H20.3256C20.5706 14.8817 21.0596 14.2067 21.5496 14.4307C22.0396 14.4307 22.2836 15.1067 22.5286 15.5567C22.7726 16.6827 23.7526 17.1327 24.7316 17.5827C25.2216 16.4567 24.9766 15.3317 23.7526 14.6557C23.5076 14.4307 23.5076 13.9807 23.2626 13.5297C23.7526 13.3047 23.9976 13.3047 24.4866 13.0797L25.4666 12.1797C25.7106 12.6297 26.2006 12.8547 26.4446 13.3047C26.9346 13.5297 27.4246 13.5297 27.9136 13.7547C27.6686 14.2057 27.6686 14.6557 27.1796 14.8817C26.1996 15.5567 25.9556 16.4567 26.4446 17.8087C27.6686 17.5837 28.6486 16.9087 28.8926 15.5567C28.8926 15.3317 29.3826 14.8817 29.6276 14.6567C29.8716 14.8817 30.3616 15.1067 30.6066 15.5567C30.8506 15.5567 31.3406 15.7817 32.0746 15.7817C31.8296 16.2317 31.8296 16.6817 31.5846 17.1317C31.8296 17.3577 31.8296 17.8077 32.0746 18.2587C31.5846 18.2587 31.0956 18.4837 30.6066 18.4837C29.3826 18.0337 28.4026 18.4837 27.4236 19.1587C28.4036 20.0587 29.3826 20.5087 30.6066 20.0587C30.8506 19.8337 31.3406 20.0587 31.8296 20.2837C31.8296 20.7337 31.5856 21.1837 31.5856 21.6347C31.5856 21.8597 31.8296 22.3097 32.0756 22.9847C31.5856 22.9847 31.0956 23.2107 30.6056 23.2107L29.6276 24.1107C29.3826 23.8857 28.8926 23.4357 28.8926 23.2107C28.6486 22.0847 27.9136 21.4097 26.6896 21.1847C26.1996 22.3097 26.4446 23.2107 27.4236 24.1117C27.6686 24.3367 27.9136 24.7867 28.1586 25.2377C27.6686 25.4627 27.1786 25.4627 26.6896 25.6877C26.4446 25.9127 26.1996 26.3627 25.7106 26.8137C25.4656 26.5887 25.2206 26.1387 24.9766 25.9137C24.7316 25.6887 24.7316 25.6887 24.4866 25.6887C24.2426 25.4637 23.7526 25.4637 23.5076 25.4637C23.7526 25.0137 23.7526 24.5637 23.9976 24.3377C24.7316 22.3107 24.9766 21.4097 24.4876 20.2837H24.4866Z" fill="#FF0000"/>
<path d="M11.5138 19.0326V15.8506C11.7588 12.9136 11.7588 9.9756 12.4938 7.2836C13.9618 2.6326 17.6338 0.673604 22.2838 0.183604C24.4803 -0.0612012 26.6972 -0.0612012 28.8938 0.183604C34.7698 1.4096 37.9508 5.5706 38.9308 11.2006C39.9098 17.3206 39.4208 23.4406 37.9508 29.5606C36.9728 33.2316 35.9928 37.1486 36.2378 41.0646C36.2378 43.0226 35.0148 44.0026 33.0558 44.0026H15.9208C13.9628 44.0026 12.7388 43.0226 12.9838 41.0646C13.2288 37.8826 11.7598 35.4346 9.80176 33.4766C7.84276 31.5176 5.63876 29.8036 3.43576 27.8466C0.74376 25.3986 0.98776 20.0126 3.92576 18.5446C5.88376 17.5646 7.29976 17.6476 9.36276 18.2666C9.93576 18.4726 10.7798 18.7896 11.5138 19.0336V19.0326ZM37.3008 11.4606C36.3678 6.0986 33.4508 2.8466 28.6328 1.8156C26.5832 1.59422 24.5157 1.5969 22.4668 1.8236C17.8768 2.3076 15.2118 4.1896 14.0768 7.7486C13.5748 9.6076 13.4468 11.6386 13.3118 13.7886C13.2696 14.4991 13.2206 15.2091 13.1648 15.9186V21.3206L10.9928 20.5966C10.7788 20.5266 7.41276 19.5466 6.65676 19.5466C5.95076 19.5466 5.29876 19.7006 4.66376 20.0176C3.94576 20.3776 3.42176 21.2836 3.26076 22.4436C3.04076 24.0436 3.55676 25.7236 4.54676 26.6226C5.29276 27.2856 6.06576 27.9426 6.81376 28.5786C8.27176 29.8176 9.64976 30.9886 10.9678 32.3066C11.7323 33.0611 12.4124 33.8967 12.9958 34.7986C14.5118 34.1686 17.9648 34.0336 21.8428 34.5186C26.6968 35.1266 33.8028 34.5196 35.1168 34.3986C35.4468 32.6546 35.8838 30.9106 36.3518 29.1516C37.8768 22.7876 38.1868 16.9996 37.3008 11.4596V11.4606ZM20.0108 35.9876C19.1882 35.9175 18.3633 35.8795 17.5378 35.8736C17.6198 36.6316 17.6938 37.7486 17.7718 38.9146C17.8558 40.1946 17.9588 41.7346 18.0578 42.3506H20.2238C20.2008 41.6196 20.1608 40.4686 20.1228 39.3356C20.0758 37.9656 20.0318 36.6556 20.0108 35.9876ZM26.1118 36.4286C25.2313 36.4173 24.3514 36.3826 23.4728 36.3246C23.5018 36.8386 23.5288 37.7176 23.5718 39.2446C23.6028 40.3766 23.6408 41.7256 23.6798 42.3506H26.3958C26.3818 41.5166 26.2998 40.1266 26.2388 39.1026C26.1508 37.6446 26.1108 36.8656 26.1118 36.4286ZM29.5768 36.3956C29.6088 36.9856 29.6038 37.9776 29.5718 39.6926C29.5538 40.6486 29.5338 41.7766 29.5588 42.3506H31.5698C31.6818 41.0856 31.7858 38.3886 31.8438 36.2956C31.1478 36.3346 30.3838 36.3706 29.5768 36.3956ZM23.0428 39.2596C23.0201 38.2693 22.9868 37.2792 22.9428 36.2896C22.4928 36.2536 22.0528 36.2096 21.6268 36.1566C21.2657 36.1115 20.904 36.0715 20.5418 36.0366C20.5628 36.7286 20.6078 38.0336 20.6518 39.3166L20.7528 42.3506H23.1518C23.1188 41.8426 23.0878 40.9076 23.0428 39.2596ZM34.8368 36.0826C34.2868 36.1306 33.4268 36.1996 32.3758 36.2646C32.2838 39.6776 32.1828 41.4346 32.0918 42.3506H33.0548C34.4368 42.3506 34.5808 41.7706 34.5868 41.1106C34.4868 39.4226 34.5998 37.7506 34.8368 36.0826ZM17.2438 38.9526C17.1678 37.8036 17.0888 36.6296 17.0058 35.8756C15.3268 35.9016 14.2458 36.0926 13.7788 36.2506C14.4788 37.8126 14.7618 39.4506 14.6278 41.1896L14.6248 41.2286L14.6198 41.2676C14.5938 41.4776 14.5728 41.8586 14.7298 42.0376C14.8638 42.1886 15.2458 42.3506 15.9198 42.3506H17.5238C17.4318 41.7256 17.3508 40.5706 17.2438 38.9526ZM29.0438 39.6826C29.0638 38.6326 29.0898 37.1806 29.0488 36.4106C28.3938 36.4276 27.7188 36.4386 27.0338 36.4386C26.9038 36.4386 26.7718 36.4346 26.6408 36.4336C26.6418 36.9826 26.7098 38.1136 26.7668 39.0686C26.8568 40.5926 26.9148 41.6586 26.9188 42.3506H29.0298C29.0098 41.8856 29.0168 41.0906 29.0428 39.6816L29.0438 39.6826Z" fill="#FF0000"/>
</g>
</svg>
