<svg width="46" height="44" viewBox="0 0 46 44" fill="none" xmlns="http://www.w3.org/2000/svg">
<g clip-path="url(#clip0_1631_5565)">
<mask id="mask0_1631_5565" style="mask-type:luminance" maskUnits="userSpaceOnUse" x="0" y="0" width="45" height="44">
<path d="M0.75 0H44.75V44H0.75V0Z" fill="white"/>
</mask>
<g mask="url(#mask0_1631_5565)">
<path d="M7.79 4.51919L14.977 11.7062L13.95 12.5862L13.217 12.8792H7.79C4.857 12.8792 0.75 16.1062 0.75 19.3322V23.7322C0.75 27.1062 4.857 30.6262 7.79 30.6262H13.95L25.683 42.5062V22.5592L31.55 28.4262C30.23 29.3062 28.617 29.7462 27.15 29.8922V31.3592C28.617 31.3592 31.11 30.6262 32.577 29.4522L37.27 34.1462C34.483 36.4922 31.55 37.8122 27.15 37.9592V39.4262C31.55 39.4262 35.363 37.8122 38.443 35.3192L43.137 40.0122L44.163 38.9862L8.817 3.49219L7.79 4.51919ZM7.79 28.8662C5.737 28.8662 2.217 25.9322 2.217 23.5862V19.1862C2.217 16.9862 5.59 14.1992 7.79 14.1992H12.483V28.8662H7.79ZM24.217 38.6922L13.95 28.4262V15.0792L16.003 12.8792L24.217 21.0922V38.6922ZM43.283 21.6792C43.283 25.6392 41.963 29.1592 39.617 31.9462L40.643 32.9722C43.283 29.8922 44.75 25.9322 44.75 21.6792C44.75 11.9992 37.417 4.07919 27.15 3.93219V5.39919C35.95 5.54619 43.283 12.7322 43.283 21.6792Z" fill="#FF0000"/>
<path d="M35.2168 21.68C35.2168 23.293 34.7768 24.907 33.8968 26.227L34.9228 27.253C36.0968 25.64 36.6828 23.733 36.6828 21.68C36.6828 16.4 33.0168 12.147 27.1498 12.147V13.613C31.5498 13.613 35.2168 17.28 35.2168 21.68ZM24.2168 4.667V16.547L25.6828 18.16V1L17.1768 9.507L18.3498 10.68L24.2168 4.667Z" fill="#FF0000"/>
</g>
</g>
<defs>
<clipPath id="clip0_1631_5565">
<rect width="45" height="44" fill="white" transform="translate(0.5)"/>
</clipPath>
</defs>
</svg>
