<svg width="46" height="44" viewBox="0 0 46 44" fill="none" xmlns="http://www.w3.org/2000/svg">
<path d="M5.87043 38.4458L5.92543 38.7208C6.03543 39.3258 6.14543 39.8758 6.42043 40.4258C7.41043 42.1858 8.89543 43.1208 10.8204 43.1208H34.8004C35.4054 43.1208 36.0104 43.1208 36.5604 42.9558C38.5404 42.4058 39.9154 40.8658 40.1904 38.8308C40.1904 38.7208 40.2454 38.6108 40.2454 38.5008V21.5058C40.1904 21.3408 40.1904 21.2308 40.1354 21.0658C40.0254 20.5708 39.9154 20.0758 39.6954 19.6908C38.7054 17.8758 37.3304 16.9958 35.3504 16.9408H34.4154C34.0854 16.9958 33.8104 16.8858 33.6454 16.7208C33.4254 16.5008 33.3704 16.1708 33.3704 15.9508V14.9608C33.3704 13.5858 33.3704 12.1558 33.3154 10.7258C33.2054 7.53578 31.9954 4.89578 29.6854 2.91578C28.2026 1.59922 26.328 0.806844 24.3504 0.660781C24.2404 0.660781 24.0754 0.660781 23.9104 0.550781H22.0404L21.2154 0.715781C20.7754 0.770781 20.3354 0.880781 19.8954 0.990781C15.9354 2.31078 13.5704 5.11578 12.8554 9.29578C12.5804 10.7808 12.6354 12.3758 12.6904 13.8608C12.6904 14.5208 12.7454 15.1808 12.6904 15.8408C12.6904 16.7208 12.1404 16.9408 11.7004 16.9408H10.9854C9.72043 16.9408 8.67543 17.2708 7.79543 17.9308C6.64043 18.8108 6.03543 19.9108 5.87043 21.2858C5.87043 21.3958 5.81543 21.5058 5.81543 21.6158V38.4458H5.87043ZM11.0404 41.4708C10.0504 41.4708 9.17043 41.0858 8.51043 40.4808C8.1732 40.1435 7.91076 39.7391 7.74019 39.2937C7.56962 38.8483 7.49474 38.372 7.52043 37.8958C7.57543 34.1558 7.57543 30.3608 7.52043 26.6758V22.1658C7.52043 19.8558 8.84043 18.4808 11.2054 18.4808H35.1854C37.2754 18.4808 38.6504 19.9108 38.6504 22.0008V37.9508C38.6504 40.0958 37.2754 41.4158 35.1304 41.4708H11.0404ZM15.3854 16.9408C15.1654 16.9408 14.8354 16.8858 14.6154 16.6658C14.3954 16.4458 14.3404 16.1158 14.3954 15.8958V13.6408C14.3954 12.4308 14.3404 11.2208 14.5054 10.0108C14.8904 5.22578 18.6304 1.98078 23.4704 2.20078C27.9254 2.36578 31.2804 5.50078 31.7754 9.95578C31.9404 11.2758 31.8854 12.5408 31.8854 13.8058V16.0608C31.8854 16.3358 31.8304 16.5558 31.6654 16.7208C31.5004 16.8858 31.2254 16.9408 30.9504 16.9408H15.3854ZM23.0854 25.1358C22.5354 25.1358 22.0404 25.3008 21.6554 25.6858C21.1604 26.0708 20.8854 26.6758 20.8854 27.3358C20.8854 27.8858 21.0504 28.3808 21.4354 28.7108C22.2604 29.4808 22.3154 30.2508 22.2604 31.0208V33.9908C22.2604 34.4308 22.4804 34.9258 23.0854 34.9258C23.5804 34.9258 23.9104 34.5408 23.9104 33.9358V30.1958C23.9104 29.6458 24.0754 29.2608 24.5154 28.9308C24.9004 28.6008 25.1754 28.0508 25.2304 27.5008C25.2854 26.8958 25.1204 26.3458 24.7354 25.9058C24.3504 25.4108 23.7454 25.1358 23.0854 25.1358Z" fill="#FF0000"/>
</svg>
