<svg width="46" height="44" viewBox="0 0 46 44" fill="none" xmlns="http://www.w3.org/2000/svg">
<mask id="mask0_1631_5585" style="mask-type:luminance" maskUnits="userSpaceOnUse" x="1" y="0" width="45" height="44">
<path d="M1.16699 0H45.167V44H1.16699V0Z" fill="white"/>
</mask>
<g mask="url(#mask0_1631_5585)">
<path d="M23.1666 20.4869C24.0048 20.488 24.8085 20.8215 25.4013 21.4142C25.994 22.007 26.3275 22.8106 26.3286 23.6489C26.3278 24.4874 25.9944 25.2913 25.4016 25.8843C24.8088 26.4773 24.005 26.8109 23.1666 26.8119C22.3279 26.8111 21.5239 26.4776 20.9309 25.8846C20.3378 25.2916 20.0043 24.4876 20.0036 23.6489C20.0046 22.8105 20.3382 22.0067 20.9312 21.4139C21.5242 20.8211 22.3281 20.4877 23.1666 20.4869ZM23.1666 18.8369C22.5287 18.8277 21.8954 18.9454 21.3035 19.1832C20.7116 19.4209 20.1728 19.7739 19.7185 20.2217C19.2642 20.6695 18.9034 21.2031 18.6572 21.7916C18.411 22.38 18.2842 23.0115 18.2842 23.6494C18.2842 24.2873 18.411 24.9189 18.6572 25.5073C18.9034 26.0958 19.2642 26.6294 19.7185 27.0772C20.1728 27.525 20.7116 27.878 21.3035 28.1157C21.8954 28.3534 22.5287 28.4711 23.1666 28.4619C24.443 28.4619 25.6672 27.9549 26.5699 27.0522C27.4725 26.1496 27.9796 24.9254 27.9796 23.6489C27.9796 22.3725 27.4725 21.1482 26.5699 20.2456C25.6672 19.343 24.443 18.8369 23.1666 18.8369Z" fill="#FF0000"/>
<path d="M10.282 42.1046C10.1213 42.104 9.96294 42.0666 9.81905 41.9951C9.67515 41.9237 9.54957 41.8202 9.45196 41.6926C9.35446 41.5656 9.28781 41.4176 9.25726 41.2604C9.22672 41.1031 9.23312 40.941 9.27596 40.7866C9.67396 39.3166 9.85596 38.0566 9.77396 37.3266C9.71096 36.7686 9.52696 36.2086 9.33296 35.6166C8.84996 34.1466 8.24896 32.3166 9.23796 29.5666C9.50145 28.8382 9.90734 28.1695 10.432 27.5996C9.6769 27.4469 8.9597 27.1457 8.32196 26.7136C5.90496 25.0706 5.31696 23.2376 4.84296 21.7636C4.65296 21.1706 4.47196 20.6096 4.19396 20.1206C3.83196 19.4826 2.94396 18.5706 1.75796 17.6166C1.59212 17.4851 1.47061 17.3058 1.40981 17.103C1.34902 16.9003 1.35186 16.6837 1.41796 16.4826C1.55196 16.0666 1.92196 15.7826 2.35796 15.7606C3.88096 15.6856 5.13596 15.4686 5.80396 15.1656C6.31596 14.9336 6.79196 14.5856 7.29496 14.2176C8.53896 13.3076 10.084 12.1646 13.019 12.2576C13.786 12.2827 14.5405 12.4594 15.239 12.7776C15.1509 12.0114 15.2162 11.2354 15.431 10.4946C16.247 7.68762 17.809 6.56163 19.063 5.65562C19.569 5.29062 20.047 4.94562 20.426 4.53163C20.921 3.98962 21.514 2.86263 22.054 1.44063C22.209 1.03063 22.592 0.765625 23.029 0.765625C23.466 0.765625 23.849 1.02963 24.005 1.43863C24.547 2.86363 25.141 3.99063 25.635 4.53063C26.014 4.94563 26.492 5.29062 26.998 5.65562C28.253 6.56163 29.814 7.68762 30.63 10.4946C30.846 11.2346 30.91 12.0026 30.82 12.7896C31.5217 12.4694 32.28 12.2917 33.051 12.2666C35.98 12.1766 37.531 13.3166 38.775 14.2266C39.279 14.5936 39.754 14.9426 40.265 15.1746C40.935 15.4776 42.189 15.6936 43.709 15.7666C44.147 15.7886 44.517 16.0716 44.652 16.4866C44.787 16.9026 44.653 17.3486 44.312 17.6226C43.126 18.5766 42.238 19.4906 41.876 20.1286C41.598 20.6166 41.418 21.1786 41.227 21.7716C40.754 23.2446 40.165 25.0776 37.749 26.7216C37.109 27.1554 36.3889 27.4573 35.631 27.6096C36.161 28.1916 36.557 28.8446 36.815 29.5666C37.805 32.3166 37.204 34.1466 36.721 35.6156C36.526 36.2086 36.342 36.7686 36.279 37.3276C36.197 38.0556 36.38 39.3156 36.779 40.7846C36.865 41.1006 36.801 41.4316 36.603 41.6906C36.4394 41.8956 36.2063 42.0334 35.9478 42.0779C35.6894 42.1223 35.4236 42.0702 35.201 41.9316C33.926 41.0976 32.783 40.5356 32.066 40.3886C31.573 40.2876 31.046 40.2786 30.55 40.2786L30.04 40.2806C28.408 40.2806 26.637 40.1436 24.518 38.5006C23.9113 38.0293 23.4042 37.4423 23.026 36.7736C22.6474 37.4421 22.1403 38.029 21.534 38.5006C19.415 40.1426 17.644 40.2806 16.011 40.2806L15.502 40.2786C15.006 40.2786 14.481 40.2886 13.987 40.3886C13.269 40.5366 12.127 41.0986 10.854 41.9326C10.684 42.0441 10.4853 42.1039 10.282 42.1046ZM12.958 27.6666C11.872 28.3166 11.143 29.1426 10.79 30.1246C9.99296 32.3406 10.434 33.6816 10.9 35.1006C11.113 35.7466 11.332 36.4156 11.414 37.1436C11.5 37.9156 11.385 38.8806 11.206 39.7886C12.014 39.3376 12.896 38.9286 13.656 38.7726C14.301 38.6406 14.922 38.6286 15.503 38.6286L16.013 38.6306C17.469 38.6306 18.813 38.5226 20.524 37.1966C21.342 36.5636 21.9 35.6256 22.184 34.4076C21.772 32.2276 22.197 30.2086 22.216 30.1226C22.2557 29.9383 22.3573 29.773 22.5039 29.6544C22.6506 29.5358 22.8334 29.471 23.022 29.4706C23.411 29.4706 23.757 29.7416 23.839 30.1216C23.858 30.2086 24.283 32.2276 23.87 34.4086C24.155 35.6256 24.713 36.5636 25.53 37.1966C27.241 38.5226 28.587 38.6306 30.042 38.6306L30.552 38.6286C31.133 38.6286 31.755 38.6406 32.399 38.7726C33.159 38.9286 34.041 39.3366 34.849 39.7876C34.67 38.8806 34.554 37.9166 34.641 37.1436C34.722 36.4156 34.941 35.7466 35.155 35.1006C35.621 33.6806 36.061 32.3406 35.265 30.1246C34.912 29.1466 34.188 28.3226 33.11 27.6746C30.92 27.3886 29.145 26.3686 29.068 26.3246C28.9033 26.2311 28.7758 26.0838 28.707 25.9074C28.6381 25.731 28.632 25.5363 28.6897 25.3559C28.7474 25.1756 28.8654 25.0205 29.0238 24.9169C29.1823 24.8132 29.3716 24.7672 29.56 24.7866C29.648 24.7956 31.69 25.0126 33.63 26.0726C34.887 26.1856 35.962 25.9426 36.82 25.3576C38.768 24.0326 39.2 22.6896 39.657 21.2676C39.864 20.6196 40.08 19.9496 40.441 19.3126C40.825 18.6366 41.486 17.9246 42.165 17.2946C41.246 17.1856 40.293 16.9976 39.585 16.6766C38.918 16.3736 38.351 15.9586 37.802 15.5566C36.596 14.6746 35.452 13.8326 33.103 13.9146C32.06 13.9476 31.049 14.3846 30.096 15.2156C29.216 17.0556 27.86 18.3586 27.606 18.5946C27.4975 18.704 27.3606 18.7809 27.2108 18.8166C27.0609 18.8523 26.9041 18.8454 26.758 18.7966C26.6451 18.7599 26.5417 18.699 26.4547 18.6183C26.3678 18.5376 26.2994 18.4389 26.2544 18.3291C26.2094 18.2193 26.1888 18.101 26.1941 17.9825C26.1994 17.864 26.2304 17.748 26.285 17.6426C26.419 17.3526 27.254 15.6296 28.735 14.2246C29.234 13.0586 29.34 11.9586 29.047 10.9546C28.39 8.69263 27.245 7.86762 26.033 6.99262C25.482 6.59462 24.911 6.18262 24.418 5.64262C23.894 5.06862 23.421 4.22063 23.031 3.37963C22.643 4.21962 22.17 5.06862 21.645 5.64262C21.151 6.18262 20.581 6.59562 20.029 6.99262C18.817 7.86762 17.674 8.69263 17.016 10.9546C16.726 11.9516 16.827 13.0416 17.316 14.1976C18.931 15.7196 19.772 17.6006 19.808 17.6816C19.8717 17.8254 19.8929 17.9845 19.8691 18.14C19.8454 18.2955 19.7776 18.4409 19.6738 18.5591C19.57 18.6773 19.4345 18.7634 19.2834 18.807C19.1323 18.8507 18.9718 18.8502 18.821 18.8056C18.6993 18.7699 18.5868 18.7086 18.491 18.6256C18.426 18.5666 16.901 17.1886 15.953 15.1886C15.007 14.3686 14.003 13.9386 12.968 13.9056C10.62 13.8366 9.47596 14.6656 8.26996 15.5476C7.71996 15.9486 7.15296 16.3646 6.48496 16.6676C5.77696 16.9876 4.82396 17.1766 3.90496 17.2866C4.58496 17.9146 5.24496 18.6266 5.62896 19.3036C5.99096 19.9396 6.20596 20.6096 6.41396 21.2576C6.87196 22.6796 7.30396 24.0226 9.24996 25.3476C10.11 25.9326 11.183 26.1766 12.44 26.0626C14.272 25.0666 16.19 24.8186 16.464 24.7886C16.6327 24.7638 16.805 24.7918 16.9572 24.8688C17.1094 24.9457 17.234 25.068 17.314 25.2186C17.414 25.4058 17.4376 25.6245 17.3798 25.8287C17.322 26.0329 17.1873 26.2067 17.004 26.3136C16.926 26.3596 15.149 27.3806 12.958 27.6666Z" fill="#FF0000"/>
</g>
</svg>
