<svg width="44" height="44" viewBox="0 0 44 44" fill="none" xmlns="http://www.w3.org/2000/svg">
<g clip-path="url(#clip0_1631_5595)">
<path d="M41.97 10.4613C37.675 5.04128 28.015 4.23528 27.072 4.16828C25.357 3.80028 23.762 3.61328 22.339 3.61328C17.263 3.61328 15.199 5.90528 14.361 7.82928C13.521 9.75528 13.855 12.4143 14.176 14.9833C14.418 16.9153 14.67 18.9143 14.316 20.1713C13.979 21.3763 12.922 22.4083 11.697 23.6063C10.801 24.4803 9.84 25.4303 9.017 26.5793C8.243 24.9693 6.633 23.8493 4.757 23.8493C2.133 23.8483 0 26.0213 0 28.6903C0 31.3603 2.134 33.5303 4.756 33.5303C5.709 33.5303 6.592 33.2383 7.336 32.7463C7.50559 33.7094 7.81839 34.6417 8.264 35.5123C9.59262 38.1286 11.8166 40.1808 14.531 41.2953C16.926 42.2823 19.138 42.9063 21.133 43.1573C22.215 43.4043 25.133 43.9983 28.343 43.9983C31.524 43.9983 34.986 43.4153 37.229 41.3383C40.423 38.3793 39.824 35.7863 39.246 33.2803C38.966 32.0643 38.676 30.8073 38.816 29.4453C39.081 26.8953 40.314 24.5423 41.289 23.3053C42.739 21.4553 43.579 20.2913 43.898 17.8553C44.27 15.0313 43.622 12.5433 41.97 10.4613ZM4.757 31.7713C3.069 31.7713 1.697 30.3883 1.697 28.6893C1.697 26.9893 3.069 25.6053 4.757 25.6053C6.447 25.6053 7.821 26.9883 7.821 28.6893V28.6953C7.70276 28.9686 7.59731 29.2472 7.505 29.5303C7.423 29.7873 7.395 30.0573 7.346 30.3203C7.07349 30.7624 6.69272 31.1276 6.23968 31.3815C5.78665 31.6355 5.27633 31.7696 4.757 31.7713ZM21.435 41.3583C21.245 41.3163 21.137 41.2883 21.127 41.2863L21.12 41.3183C19.336 41.0683 17.347 40.4983 15.182 39.6053C12.8604 38.6554 10.9575 36.9029 9.82 34.6673C9.095 33.2313 8.855 31.9243 9.044 30.7533C9.23083 30.355 9.36238 29.9331 9.435 29.4993C10.22 27.6093 11.565 26.2343 12.901 24.9273C14.255 23.6073 15.532 22.3613 16.004 20.6803C16.459 19.0583 16.195 16.9653 15.917 14.7503C15.627 12.4323 15.325 10.0353 15.962 8.57728C17.095 5.98028 20.056 5.43228 22.34 5.43228C23.664 5.43228 25.156 5.61228 26.78 5.96328C27.025 6.01628 27.273 6.07628 27.515 6.14028C31.414 7.18628 34.673 9.65028 35.817 12.4203C36.544 14.1723 36.421 15.9693 35.457 17.7613C34.4609 19.6352 33.3253 21.4316 32.06 23.1353C31.007 24.5793 30.373 25.4513 30.373 27.0923C30.373 28.0573 30.706 29.0553 31.063 30.1143C31.705 32.0353 32.373 34.0213 31.259 36.1543C29.969 38.6273 27.871 41.4643 23.057 41.4643C22.537 41.4623 21.997 41.4263 21.435 41.3583ZM42.162 17.6103C42.07 18.3073 41.932 18.8623 41.733 19.3673C41.5659 19.1614 41.3552 18.9953 41.116 18.881C40.8768 18.7666 40.6151 18.707 40.35 18.7063C39.345 18.7063 38.53 19.5503 38.53 20.5933C38.5264 20.981 38.6427 21.3603 38.8631 21.6794C39.0835 21.9984 39.3971 22.2414 39.761 22.3753C39.208 23.1233 38.603 24.1553 38.101 25.3553C37.983 24.2823 37.106 23.4473 36.036 23.4473C34.888 23.4473 33.956 24.4113 33.956 25.6013C33.956 26.7913 34.887 27.7553 36.036 27.7553C36.596 27.7553 37.103 27.5253 37.476 27.1533C37.291 27.8283 37.148 28.5333 37.074 29.2503C36.899 30.9223 37.24 32.3983 37.54 33.7003C38.081 36.0503 38.474 37.7473 36.06 39.9833C34.127 41.7733 30.94 42.2233 28.009 42.1743C30.486 40.9053 31.886 38.7733 32.801 37.0183C33.2228 36.2224 33.4863 35.3524 33.577 34.4563C33.627 34.4603 33.677 34.4633 33.727 34.4633C34.728 34.4633 35.54 33.4373 35.54 32.1733C35.54 30.9063 34.728 29.8803 33.728 29.8803C33.437 29.8803 33.165 29.9683 32.92 30.1233C32.855 29.9143 32.785 29.7133 32.72 29.5173C32.414 28.6083 32.128 27.7493 32.128 27.0903C32.128 26.0603 32.491 25.5603 33.463 24.2273C34.777 22.4574 35.956 20.5911 36.99 18.6443C37.804 17.1313 38.142 15.5643 38.003 14.0163C38.121 14.0443 38.243 14.0613 38.368 14.0613C39.248 14.0613 39.961 13.3233 39.961 12.4123C39.961 11.5013 39.249 10.7623 38.368 10.7623C37.922 10.7623 37.52 10.9523 37.232 11.2563C36.57 9.88228 35.523 8.60928 34.194 7.51628C36.602 8.36028 39.062 9.65028 40.62 11.6183C41.963 13.3173 42.467 15.2763 42.162 17.6103Z" fill="#FF0000"/>
<path d="M40.0199 15.344C39.9657 15.474 39.9484 15.6165 39.97 15.7557C39.9915 15.8948 40.051 16.0254 40.1419 16.133C40.1549 16.151 40.1639 16.176 40.1799 16.193C40.2482 16.2646 40.3303 16.3216 40.4212 16.3606C40.5121 16.3996 40.61 16.4198 40.7089 16.42C40.8077 16.4197 40.9053 16.3994 40.9961 16.3604C41.0868 16.3214 41.1687 16.2645 41.2369 16.193C41.3787 16.0459 41.4576 15.8493 41.4569 15.645C41.4604 15.4432 41.3837 15.2483 41.2436 15.103C41.1036 14.9578 40.9116 14.8739 40.7099 14.87C40.5607 14.8709 40.4151 14.9166 40.2921 15.0011C40.1691 15.0856 40.0743 15.205 40.0199 15.344ZM34.3039 39.517C34.8069 39.517 35.2149 39.094 35.2149 38.573C35.2149 38.053 34.8069 37.63 34.3049 37.63C33.8009 37.63 33.3939 38.052 33.3939 38.573C33.3939 39.094 33.8009 39.517 34.3039 39.517ZM19.8079 33.121C21.1729 33.121 22.2799 31.975 22.2799 30.561C22.2799 29.147 21.1729 28.001 19.8079 28.001C18.4439 28.001 17.3369 29.147 17.3369 30.561C17.3369 31.975 18.4439 33.121 19.8079 33.121ZM25.0099 26.723C25.5479 26.723 25.9849 26.27 25.9849 25.712C25.9849 25.153 25.5479 24.701 25.0089 24.701C24.4699 24.701 24.0329 25.153 24.0329 25.711C24.0329 26.27 24.4709 26.723 25.0099 26.723ZM22.0509 19.99C23.0029 19.99 23.7739 19.191 23.7739 18.206C23.7739 17.22 23.0029 16.421 22.0509 16.421C21.0999 16.421 20.3279 17.22 20.3279 18.206C20.3279 19.191 21.0989 19.99 22.0509 19.99ZM31.4279 18.203C33.0339 18.203 34.3359 16.853 34.3359 15.189C34.3359 13.525 33.0339 12.176 31.4279 12.176C29.8209 12.176 28.5179 13.526 28.5179 15.189C28.5179 16.854 29.8209 18.203 31.4279 18.203ZM25.9829 11.437C26.5229 11.437 26.9589 10.984 26.9589 10.426C26.9589 9.868 26.5219 9.416 25.9829 9.416C25.4449 9.416 25.0079 9.868 25.0079 10.426C25.0079 10.984 25.4449 11.436 25.9829 11.436V11.437ZM6.32989 18.965C8.32489 18.965 9.94789 17.313 9.94789 15.285C9.94789 13.255 8.32489 11.603 6.32989 11.603C4.33589 11.603 2.71289 13.256 2.71289 15.286C2.71289 17.313 4.33589 18.965 6.32989 18.965ZM6.32989 12.938C6.9498 12.9406 7.54333 13.1892 7.98018 13.629C8.41703 14.0689 8.66149 14.6641 8.65989 15.284C8.66095 15.9036 8.41626 16.4983 7.97947 16.9377C7.54268 17.3771 6.94946 17.6254 6.32989 17.628C5.71051 17.6254 5.11749 17.377 4.68102 16.9376C4.24454 16.4981 4.0003 15.9034 4.00189 15.284C4.00003 14.6643 4.24413 14.0693 4.6806 13.6294C5.11707 13.1896 5.71024 12.9409 6.32989 12.938ZM11.3219 4.035C12.4149 4.035 13.3039 3.13 13.3039 2.019C13.3039 0.906 12.4149 0 11.3219 0C10.2289 0 9.33989 0.906 9.33989 2.019C9.33989 3.13 10.2299 4.035 11.3219 4.035ZM11.3219 0.733C12.0259 0.733 12.5979 1.311 12.5979 2.019C12.5982 2.35796 12.464 2.68318 12.2248 2.92333C11.9855 3.16348 11.6608 3.29894 11.3219 3.3C10.9829 3.29868 10.6583 3.16296 10.4193 2.92263C10.1803 2.68229 10.0464 2.35696 10.0469 2.018C10.0469 1.308 10.6189 0.733 11.3219 0.733ZM11.3219 16.806C10.2289 16.806 9.33989 17.712 9.33989 18.825C9.33989 19.936 10.2299 20.841 11.3219 20.841C12.4149 20.841 13.3039 19.936 13.3039 18.825C13.3039 17.712 12.4149 16.806 11.3219 16.806ZM11.3219 20.107C10.9829 20.1057 10.6583 19.97 10.4193 19.7296C10.1803 19.4893 10.0464 19.164 10.0469 18.825C10.0469 18.115 10.6189 17.539 11.3219 17.539C12.0259 17.539 12.5979 18.117 12.5979 18.825C12.5984 19.1641 12.4643 19.4896 12.2251 19.73C11.9859 19.9703 11.661 20.1059 11.3219 20.107Z" fill="#FF0000"/>
</g>
<defs>
<clipPath id="clip0_1631_5595">
<rect width="44" height="44" fill="white"/>
</clipPath>
</defs>
</svg>
