<svg width="46" height="44" viewBox="0 0 46 44" fill="none" xmlns="http://www.w3.org/2000/svg">
<g clip-path="url(#clip0_1631_5601)">
<mask id="mask0_1631_5601" style="mask-type:luminance" maskUnits="userSpaceOnUse" x="0" y="0" width="45" height="44">
<path d="M0.833008 0H44.833V44H0.833008V0Z" fill="white"/>
</mask>
<g mask="url(#mask0_1631_5601)">
<path d="M9.07758 42.5717C8.91458 42.5717 8.58758 42.4087 8.42458 42.2457L1.07758 34.4087C1.00029 34.3349 0.938759 34.2462 0.896721 34.148C0.854683 34.0498 0.833008 33.944 0.833008 33.8372C0.833008 33.7303 0.854683 33.6246 0.896721 33.5264C0.938759 33.4281 1.00029 33.3394 1.07758 33.2657L9.07758 25.1027C9.24158 24.9397 10.0576 24.1227 10.8736 23.6327C11.8536 23.1427 13.1596 22.9807 13.1596 22.9807H30.1396C30.1396 22.9807 31.4456 22.9807 32.7516 23.6337L38.6286 17.7557C39.6086 16.7757 41.8946 15.6337 43.8536 17.5927C44.5066 18.2457 44.8336 19.0627 44.8336 19.8787C44.8336 21.5107 43.6906 22.6537 43.5266 22.8167L28.1796 38.4907C28.0166 38.6537 27.8536 38.6537 27.5266 38.6537L13.3226 38.8167L9.56758 42.0827C9.40458 42.4087 9.24158 42.5717 9.07758 42.5717ZM2.71058 33.9187L9.07758 40.6127L12.5066 37.6737C12.6696 37.5107 12.8336 37.5107 12.9966 37.5107L27.2006 37.3477L42.3846 22.0007C42.7106 21.8377 43.2006 21.0207 43.2006 20.2047C43.2006 19.8787 43.0376 19.3887 42.7106 19.0617C41.4046 17.7557 39.9346 19.0617 39.7716 19.2247L33.8946 24.9397C34.3846 25.5927 34.5476 26.4097 34.5476 27.2247C34.5476 28.8577 33.7306 30.1647 32.2616 30.8167C31.2816 31.3067 30.1396 31.3067 30.1396 31.3067H21.1596C20.6696 31.3067 20.3436 30.9807 20.3436 30.4907C20.3436 30.0007 20.6696 29.6747 21.1596 29.6747H30.1396C30.4656 29.6747 32.9146 29.5107 32.9146 27.2247C32.9146 26.5717 32.7516 25.9187 32.2616 25.5927C31.6086 24.7767 30.1396 24.7767 30.1396 24.7767H13.3226C13.3226 24.7767 12.5066 24.9397 11.6906 25.2667C11.2006 25.5927 10.5476 26.2457 10.2206 26.4087L2.71058 33.9187ZM21.4856 19.8787C21.3226 19.8787 21.1596 19.8787 20.9956 19.7147C18.0576 17.2657 16.2616 13.6747 16.2616 9.91867C16.2616 6.16367 17.8946 2.57167 20.9966 0.122667C21.1474 0.0421316 21.3157 0 21.4866 0C21.6575 0 21.8258 0.0421316 21.9766 0.122667C24.9146 2.57267 26.7106 6.16367 26.7106 9.91867C26.7106 13.6747 25.0776 17.2657 21.9756 19.7147C21.8126 19.7147 21.6496 19.8787 21.4856 19.8787ZM21.4856 1.75567C19.2006 3.87867 17.8946 6.65367 17.8946 9.75567C17.8946 12.8577 19.2006 15.7957 21.4856 17.7557C23.7716 15.6337 25.0776 12.8577 25.0776 9.75567C25.0776 6.65367 23.7706 3.87867 21.4856 1.75567Z" fill="#FF0000"/>
<path d="M22.3025 19.0617C21.8125 19.0617 21.6495 18.8987 21.4855 18.5717C21.3225 18.2457 21.4855 17.9187 21.6495 17.7557C23.7715 15.6337 25.0775 12.8577 25.0775 9.91872V9.43072C25.0775 9.26672 25.2405 8.94072 25.4045 8.77672C27.6895 6.65472 30.7915 5.51172 33.8945 5.51172H34.0575C34.5475 5.51172 34.8735 5.83872 34.8735 6.32872V6.65472C34.8735 13.5117 29.1595 19.0617 22.3025 19.0617ZM26.7105 9.75572C26.7105 12.6947 25.8945 15.3067 24.2605 17.4297C29.1595 16.6127 33.0775 12.3677 33.2405 7.14372C30.7915 7.30672 28.5065 8.12372 26.7105 9.75572Z" fill="#FF0000"/>
</g>
</g>
<defs>
<clipPath id="clip0_1631_5601">
<rect width="45" height="44" fill="white" transform="translate(0.5)"/>
</clipPath>
</defs>
</svg>
