<svg width="46" height="44" fill="none" xmlns="http://www.w3.org/2000/svg"><mask id="a" style="mask-type:luminance" maskUnits="userSpaceOnUse" x="1" y="0" width="45" height="44"><path d="M1.25 0h44v44h-44V0z" fill="#fff"/></mask><g mask="url(#a)" fill="red"><path d="M24.487 20.284c-1.223.225-1.958.9-2.203 2.252 0 .225-.49.675-.734.9l-1.224-1.125h-1.224c.245-.45.245-.9.49-1.126v-.45c0-.226-.245-.676-.245-.901.49 0 .979-.225 1.224-.225 1.223.45 2.203 0 3.182-.675-.98-.9-1.96-1.351-3.182-.9-.245.224-.735 0-1.224-.226 0-.45.245-.9.245-1.126 0-.45-.245-.9-.49-1.35.49 0 .98-.225 1.469-.225h-.245c.245-.225.734-.9 1.224-.676.49 0 .734.676.979 1.126.244 1.126 1.224 1.576 2.203 2.026.49-1.126.245-2.251-.98-2.927-.244-.225-.244-.675-.49-1.126.49-.225.736-.225 1.225-.45l.98-.9c.244.45.734.675.978 1.125.49.225.98.225 1.469.45-.245.45-.245.9-.734 1.127-.98.675-1.224 1.575-.735 2.927 1.224-.225 2.204-.9 2.448-2.252 0-.225.49-.675.735-.9.244.225.734.45.979.9.244 0 .734.225 1.468.225-.245.45-.245.9-.49 1.35.245.226.245.676.49 1.127-.49 0-.98.225-1.468.225-1.224-.45-2.204 0-3.183.675.98.9 1.959 1.35 3.183.9.244-.225.734 0 1.223.225 0 .45-.244.9-.244 1.35 0 .226.244.676.49 1.35-.49 0-.98.227-1.47.227l-.978.9c-.245-.225-.735-.675-.735-.9-.244-1.126-.98-1.801-2.203-2.026-.49 1.125-.245 2.026.734 2.927.245.225.49.675.735 1.126-.49.225-.98.225-1.47.45-.244.225-.49.675-.978 1.126-.245-.225-.49-.675-.734-.9-.245-.225-.245-.225-.49-.225-.244-.225-.734-.225-.98-.225.246-.45.246-.9.49-1.126.735-2.027.98-2.928.49-4.054z"/><path d="M11.514 19.033V15.85c.245-2.937.245-5.875.98-8.567 1.468-4.651 5.14-6.61 9.79-7.1a29.838 29.838 0 016.61 0C34.77 1.41 37.95 5.57 38.93 11.2c.979 6.12.49 12.24-.98 18.36-.978 3.67-1.958 7.588-1.713 11.504 0 1.958-1.223 2.938-3.182 2.938H15.92c-1.958 0-3.182-.98-2.937-2.938.245-3.182-1.224-5.63-3.182-7.588-1.96-1.96-4.163-3.673-6.366-5.63-2.692-2.448-2.448-7.834.49-9.302 1.958-.98 3.374-.897 5.437-.278.573.206 1.417.523 2.15.767v-.001zM37.3 11.46c-.933-5.362-3.85-8.614-8.668-9.645a28.367 28.367 0 00-6.166.008c-4.59.484-7.255 2.366-8.39 5.925-.502 1.859-.63 3.89-.765 6.04-.042.71-.091 1.42-.147 2.13v5.402l-2.172-.724c-.214-.07-3.58-1.05-4.336-1.05-.706 0-1.358.154-1.993.47-.718.36-1.242 1.267-1.403 2.427-.22 1.6.296 3.28 1.286 4.179.746.663 1.519 1.32 2.267 1.956 1.458 1.239 2.836 2.41 4.154 3.728a14.78 14.78 0 012.028 2.492c1.516-.63 4.969-.765 8.847-.28 4.854.608 11.96 0 13.274-.12.33-1.744.767-3.488 1.235-5.247C37.877 22.788 38.187 17 37.3 11.46zM20.01 35.988a31.8 31.8 0 00-2.473-.114c.082.758.156 1.875.234 3.04.084 1.28.187 2.82.286 3.437h2.166c-.023-.731-.063-1.882-.101-3.015-.047-1.37-.091-2.68-.112-3.348zm6.1.44c-.88-.01-1.76-.045-2.638-.103.029.514.056 1.393.099 2.92.03 1.132.069 2.48.108 3.106h2.716c-.014-.834-.096-2.224-.157-3.248-.088-1.458-.128-2.237-.127-2.674zm3.466-.032c.032.59.027 1.582-.005 3.297-.018.956-.038 2.084-.013 2.658h2.01c.113-1.265.217-3.962.275-6.055-.696.039-1.46.075-2.267.1zm-6.534 2.864c-.023-.99-.056-1.98-.1-2.97-.45-.036-.89-.08-1.316-.133a38.72 38.72 0 00-1.085-.12c.02.692.066 1.997.11 3.28l.1 3.034h2.4c-.033-.508-.064-1.443-.11-3.091zm11.794-3.177c-.55.048-1.41.117-2.461.182-.092 3.413-.193 5.17-.284 6.086h.963c1.382 0 1.526-.58 1.532-1.24-.1-1.688.013-3.36.25-5.028zm-17.593 2.87c-.076-1.15-.155-2.323-.238-3.077-1.68.026-2.76.217-3.227.375.7 1.562.983 3.2.849 4.939l-.003.039-.005.039c-.026.21-.047.59.11.77.134.15.516.313 1.19.313h1.604c-.092-.625-.173-1.78-.28-3.398zm11.8.73c.02-1.05.046-2.502.005-3.272-.655.017-1.33.028-2.015.028-.13 0-.262-.004-.393-.005 0 .549.069 1.68.126 2.635.09 1.524.148 2.59.152 3.282h2.11c-.02-.465-.012-1.26.014-2.67v.002z"/></g></svg>