<svg width="46" height="44" fill="none" xmlns="http://www.w3.org/2000/svg"><g clip-path="url(#clip0_1631_5565)"><mask id="a" style="mask-type:luminance" maskUnits="userSpaceOnUse" x="0" y="0" width="45" height="44"><path d="M.75 0h44v44h-44V0z" fill="#fff"/></mask><g mask="url(#a)" fill="red"><path d="M7.79 4.52l7.187 7.186-1.027.88-.733.293H7.79c-2.933 0-7.04 3.227-7.04 6.453v4.4c0 3.374 4.107 6.894 7.04 6.894h6.16l11.733 11.88V22.56l5.867 5.867c-1.32.88-2.933 1.32-4.4 1.466v1.467c1.467 0 3.96-.733 5.427-1.907l4.693 4.694c-2.787 2.346-5.72 3.666-10.12 3.813v1.467c4.4 0 8.213-1.614 11.293-4.107l4.694 4.693 1.026-1.026L8.817 3.492 7.79 4.52zm0 24.346c-2.053 0-5.573-2.934-5.573-5.28v-4.4c0-2.2 3.373-4.987 5.573-4.987h4.693v14.667H7.79zm16.427 9.826L13.95 28.426V15.08l2.053-2.2 8.214 8.213v17.6zM43.283 21.68c0 3.96-1.32 7.48-3.666 10.267l1.026 1.026c2.64-3.08 4.107-7.04 4.107-11.293 0-9.68-7.333-17.6-17.6-17.747V5.4c8.8.147 16.133 7.333 16.133 16.28z"/><path d="M35.217 21.68c0 1.613-.44 3.227-1.32 4.547l1.026 1.026c1.174-1.613 1.76-3.52 1.76-5.573 0-5.28-3.666-9.533-9.533-9.533v1.466c4.4 0 8.067 3.667 8.067 8.067zm-11-17.013v11.88l1.466 1.613V1l-8.506 8.507 1.173 1.173 5.867-6.013z"/></g></g><defs><clipPath id="clip0_1631_5565"><path fill="#fff" transform="translate(.5)" d="M0 0h45v44H0z"/></clipPath></defs></svg>