<svg width="46" height="44" fill="none" xmlns="http://www.w3.org/2000/svg"><path d="M5.87 38.446l.055.275c.11.605.22 1.155.495 1.705.99 1.76 2.475 2.695 4.4 2.695H34.8c.605 0 1.21 0 1.76-.165 1.98-.55 3.355-2.09 3.63-4.125 0-.11.055-.22.055-.33V21.506c-.055-.165-.055-.275-.11-.44-.11-.495-.22-.99-.44-1.375-.99-1.815-2.365-2.695-4.345-2.75h-.935c-.33.055-.605-.055-.77-.22-.22-.22-.275-.55-.275-.77v-.99c0-1.375 0-2.805-.055-4.235-.11-3.19-1.32-5.83-3.63-7.81A9.038 9.038 0 0024.35.66c-.11 0-.275 0-.44-.11h-1.87l-.825.165c-.44.055-.88.165-1.32.275-3.96 1.32-6.325 4.125-7.04 8.305-.275 1.485-.22 3.08-.165 4.565 0 .66.055 1.32 0 1.98 0 .88-.55 1.1-.99 1.1h-.715c-1.265 0-2.31.33-3.19.99-1.155.88-1.76 1.98-1.925 3.355 0 .11-.055.22-.055.33v16.83h.055zm5.17 3.025c-.99 0-1.87-.385-2.53-.99a3.397 3.397 0 01-.99-2.585c.055-3.74.055-7.535 0-11.22v-4.51c0-2.31 1.32-3.685 3.685-3.685h23.98c2.09 0 3.465 1.43 3.465 3.52v15.95c0 2.145-1.375 3.465-3.52 3.52H11.04zm4.345-24.53c-.22 0-.55-.055-.77-.275a.854.854 0 01-.22-.77V13.64c0-1.21-.055-2.42.11-3.63.385-4.785 4.125-8.03 8.965-7.81 4.455.165 7.81 3.3 8.305 7.755.165 1.32.11 2.585.11 3.85v2.255c0 .275-.055.495-.22.66-.165.165-.44.22-.715.22H15.385zm7.7 8.195c-.55 0-1.045.165-1.43.55-.495.385-.77.99-.77 1.65 0 .55.165 1.045.55 1.375.825.77.88 1.54.825 2.31v2.97c0 .44.22.935.825.935.495 0 .825-.385.825-.99v-3.74c0-.55.165-.935.605-1.265.385-.33.66-.88.715-1.43.055-.605-.11-1.155-.495-1.595-.385-.495-.99-.77-1.65-.77z" fill="red"/></svg>