<svg width="46" height="44" fill="none" xmlns="http://www.w3.org/2000/svg"><mask id="a" style="mask-type:luminance" maskUnits="userSpaceOnUse" x="1" y="0" width="45" height="44"><path d="M1.167 0h44v44h-44V0z" fill="#fff"/></mask><g mask="url(#a)" fill="red"><path d="M23.167 20.487a3.167 3.167 0 013.162 3.162 3.166 3.166 0 01-3.162 3.163 3.166 3.166 0 01-3.163-3.163 3.166 3.166 0 013.163-3.162zm0-1.65a4.811 4.811 0 00-4.51 6.67 4.812 4.812 0 004.51 2.955 4.813 4.813 0 100-9.625z"/><path d="M10.282 42.105a1.049 1.049 0 01-1.025-.845 1.036 1.036 0 01.019-.473c.398-1.47.58-2.73.498-3.46-.063-.558-.247-1.118-.441-1.71-.483-1.47-1.084-3.3-.095-6.05a5.834 5.834 0 011.194-1.967 5.817 5.817 0 01-2.11-.886c-2.417-1.643-3.005-3.476-3.479-4.95-.19-.593-.371-1.154-.649-1.643-.362-.638-1.25-1.55-2.436-2.504a1.035 1.035 0 01-.34-1.134c.134-.416.504-.7.94-.722 1.523-.075 2.778-.292 3.446-.595.512-.232.988-.58 1.491-.948 1.244-.91 2.789-2.053 5.724-1.96a5.814 5.814 0 012.22.52 5.813 5.813 0 01.192-2.283c.816-2.807 2.378-3.933 3.632-4.84.506-.364.984-.71 1.363-1.123.495-.542 1.088-1.67 1.628-3.091.155-.41.538-.675.975-.675.437 0 .82.264.976.673.542 1.425 1.136 2.552 1.63 3.092.379.415.857.76 1.363 1.125 1.255.906 2.816 2.032 3.632 4.839.216.74.28 1.508.19 2.295a5.831 5.831 0 012.231-.523c2.929-.09 4.48 1.05 5.724 1.96.504.367.979.716 1.49.948.67.303 1.924.519 3.444.592.438.022.808.305.943.72.135.416.001.862-.34 1.136-1.186.954-2.074 1.868-2.436 2.506-.278.488-.458 1.05-.649 1.643-.473 1.473-1.062 3.306-3.478 4.95-.64.433-1.36.735-2.118.888.53.582.926 1.235 1.184 1.957.99 2.75.389 4.58-.094 6.049-.195.593-.379 1.153-.442 1.712-.082.728.101 1.988.5 3.457.086.316.022.647-.176.906a1.07 1.07 0 01-1.402.24c-1.275-.833-2.418-1.395-3.135-1.542-.493-.101-1.02-.11-1.516-.11l-.51.002c-1.632 0-3.403-.137-5.522-1.78a5.806 5.806 0 01-1.492-1.727 5.824 5.824 0 01-1.492 1.727c-2.119 1.642-3.89 1.78-5.523 1.78l-.509-.002c-.496 0-1.021.01-1.515.11-.718.148-1.86.71-3.133 1.544a1.05 1.05 0 01-.572.172zm2.676-14.438c-1.086.65-1.815 1.476-2.168 2.458-.797 2.216-.356 3.557.11 4.976.213.646.432 1.315.514 2.043.086.772-.029 1.737-.208 2.645.808-.451 1.69-.86 2.45-1.016.645-.132 1.266-.144 1.847-.144l.51.002c1.456 0 2.8-.108 4.511-1.434.818-.633 1.376-1.571 1.66-2.79-.412-2.18.013-4.198.032-4.284a.826.826 0 01.806-.652c.389 0 .735.27.817.65.019.088.444 2.107.031 4.288.285 1.217.843 2.155 1.66 2.788 1.711 1.326 3.057 1.434 4.512 1.434l.51-.002c.581 0 1.203.012 1.847.144.76.156 1.642.564 2.45 1.015-.179-.907-.295-1.871-.208-2.644.081-.728.3-1.397.514-2.043.466-1.42.906-2.76.11-4.976-.353-.978-1.077-1.802-2.155-2.45-2.19-.286-3.965-1.306-4.042-1.35a.824.824 0 01.492-1.538c.088.009 2.13.226 4.07 1.286 1.257.113 2.332-.13 3.19-.715 1.948-1.325 2.38-2.668 2.837-4.09.207-.648.423-1.318.784-1.955.384-.676 1.045-1.388 1.724-2.018-.919-.11-1.872-.297-2.58-.618-.667-.303-1.234-.718-1.783-1.12-1.206-.882-2.35-1.724-4.699-1.642-1.043.033-2.054.47-3.007 1.3-.88 1.84-2.236 3.144-2.49 3.38a.827.827 0 01-1.412-.612.819.819 0 01.091-.34c.134-.29.969-2.013 2.45-3.418.499-1.166.605-2.266.312-3.27-.657-2.262-1.802-3.087-3.014-3.962-.551-.398-1.122-.81-1.615-1.35-.524-.574-.997-1.422-1.387-2.263-.388.84-.861 1.689-1.386 2.263-.494.54-1.064.953-1.616 1.35-1.212.875-2.355 1.7-3.013 3.962-.29.997-.189 2.087.3 3.243 1.615 1.522 2.456 3.403 2.492 3.484a.824.824 0 01-.987 1.124.884.884 0 01-.33-.18c-.065-.06-1.59-1.437-2.538-3.437-.946-.82-1.95-1.25-2.985-1.283-2.348-.07-3.492.76-4.698 1.642-.55.4-1.117.817-1.785 1.12-.708.32-1.661.509-2.58.619.68.628 1.34 1.34 1.724 2.017.362.636.577 1.306.785 1.954.458 1.422.89 2.765 2.836 4.09.86.585 1.933.829 3.19.715 1.832-.996 3.75-1.244 4.024-1.274a.826.826 0 01.916 1.04.82.82 0 01-.376.485c-.078.046-1.855 1.067-4.046 1.353z"/></g></svg>