<svg width="44" height="44" fill="none" xmlns="http://www.w3.org/2000/svg"><g clip-path="url(#clip0_1631_5595)" fill="red"><path d="M41.97 10.461c-4.295-5.42-13.955-6.226-14.898-6.293-1.715-.368-3.31-.555-4.733-.555-5.076 0-7.14 2.292-7.978 4.216-.84 1.926-.506 4.585-.185 7.154.242 1.932.494 3.931.14 5.188-.337 1.205-1.394 2.237-2.619 3.435-.896.874-1.857 1.824-2.68 2.973-.774-1.61-2.384-2.73-4.26-2.73C2.133 23.85 0 26.021 0 28.69c0 2.67 2.134 4.84 4.756 4.84.953 0 1.836-.292 2.58-.784.17.963.482 1.896.928 2.766a12.245 12.245 0 006.267 5.783c2.395.987 4.607 1.611 6.602 1.862 1.082.247 4 .841 7.21.841 3.181 0 6.643-.583 8.886-2.66 3.194-2.959 2.595-5.552 2.017-8.058-.28-1.216-.57-2.473-.43-3.835.265-2.55 1.498-4.903 2.473-6.14 1.45-1.85 2.29-3.014 2.609-5.45.372-2.824-.276-5.312-1.928-7.394zM4.757 31.771c-1.688 0-3.06-1.383-3.06-3.082 0-1.7 1.372-3.084 3.06-3.084 1.69 0 3.064 1.383 3.064 3.084v.006a9.59 9.59 0 00-.316.835c-.082.257-.11.527-.159.79a3.053 3.053 0 01-2.589 1.451zm16.678 9.587c-.19-.042-.298-.07-.308-.072l-.007.032c-1.784-.25-3.773-.82-5.938-1.713a10.46 10.46 0 01-5.362-4.938c-.725-1.436-.965-2.743-.776-3.914.187-.398.318-.82.391-1.254.785-1.89 2.13-3.265 3.466-4.572 1.354-1.32 2.631-2.566 3.103-4.247.455-1.622.191-3.715-.087-5.93-.29-2.318-.592-4.715.045-6.173 1.133-2.597 4.094-3.145 6.378-3.145 1.324 0 2.816.18 4.44.531.245.053.493.113.735.177 3.899 1.046 7.158 3.51 8.302 6.28.727 1.752.604 3.55-.36 5.341a42.363 42.363 0 01-3.397 5.374c-1.053 1.444-1.687 2.316-1.687 3.957 0 .965.333 1.963.69 3.022.642 1.921 1.31 3.907.196 6.04-1.29 2.473-3.388 5.31-8.202 5.31-.52-.002-1.06-.038-1.622-.106zM42.162 17.61c-.092.697-.23 1.252-.429 1.757a1.787 1.787 0 00-1.383-.66c-1.005 0-1.82.843-1.82 1.886a1.88 1.88 0 001.231 1.782c-.553.748-1.158 1.78-1.66 2.98-.118-1.073-.995-1.908-2.065-1.908-1.148 0-2.08.964-2.08 2.154s.931 2.154 2.08 2.154c.56 0 1.067-.23 1.44-.602-.185.675-.328 1.38-.402 2.097-.175 1.672.166 3.148.466 4.45.541 2.35.934 4.047-1.48 6.283-1.933 1.79-5.12 2.24-8.051 2.191 2.477-1.269 3.877-3.4 4.792-5.156a6.97 6.97 0 00.776-2.562c.05.004.1.007.15.007 1.001 0 1.813-1.026 1.813-2.29 0-1.267-.812-2.293-1.812-2.293-.291 0-.563.088-.808.243-.065-.209-.135-.41-.2-.606-.306-.909-.592-1.768-.592-2.427 0-1.03.363-1.53 1.335-2.863a43.953 43.953 0 003.527-5.583c.814-1.513 1.152-3.08 1.013-4.628.118.028.24.045.365.045.88 0 1.593-.738 1.593-1.649 0-.91-.712-1.65-1.593-1.65-.446 0-.848.19-1.136.494-.662-1.374-1.709-2.647-3.038-3.74 2.408.844 4.868 2.134 6.426 4.102 1.343 1.7 1.847 3.658 1.542 5.992z"/><path d="M40.02 15.344a.765.765 0 00.122.789c.013.018.022.043.038.06a.733.733 0 001.057 0 .786.786 0 00.22-.548.762.762 0 00-.747-.775.746.746 0 00-.69.474zm-5.716 24.173c.503 0 .91-.423.91-.944 0-.52-.407-.943-.91-.943-.503 0-.91.422-.91.943 0 .521.407.944.91.944zm-14.496-6.396c1.365 0 2.472-1.146 2.472-2.56 0-1.414-1.107-2.56-2.472-2.56-1.364 0-2.471 1.146-2.471 2.56 0 1.414 1.107 2.56 2.47 2.56zm5.202-6.398c.538 0 .975-.453.975-1.011 0-.559-.437-1.011-.976-1.011-.54 0-.976.452-.976 1.01 0 .559.438 1.012.977 1.012zm-2.96-6.733c.953 0 1.724-.799 1.724-1.784 0-.986-.771-1.785-1.723-1.785-.951 0-1.723.799-1.723 1.785 0 .985.77 1.784 1.723 1.784zm9.378-1.787c1.606 0 2.908-1.35 2.908-3.014 0-1.664-1.302-3.013-2.908-3.013-1.607 0-2.91 1.35-2.91 3.013 0 1.665 1.303 3.014 2.91 3.014zm-5.445-6.766c.54 0 .976-.453.976-1.011 0-.558-.437-1.01-.976-1.01-.538 0-.975.452-.975 1.01s.437 1.01.975 1.01v.001zM6.33 18.965c1.995 0 3.618-1.652 3.618-3.68 0-2.03-1.623-3.682-3.618-3.682-1.994 0-3.617 1.653-3.617 3.683 0 2.027 1.623 3.679 3.617 3.679zm0-6.027a2.34 2.34 0 012.33 2.346 2.34 2.34 0 01-2.33 2.344 2.338 2.338 0 01-2.328-2.344 2.34 2.34 0 012.328-2.346zm4.992-8.903c1.093 0 1.982-.905 1.982-2.016C13.304.906 12.414 0 11.322 0 10.229 0 9.34.906 9.34 2.019c0 1.111.89 2.016 1.982 2.016zm0-3.302a1.283 1.283 0 010 2.567 1.28 1.28 0 01-1.275-1.282c0-.71.572-1.285 1.275-1.285zm0 16.073c-1.093 0-1.982.906-1.982 2.019 0 1.111.89 2.016 1.982 2.016 1.093 0 1.982-.905 1.982-2.016 0-1.113-.89-2.019-1.982-2.019zm0 3.301a1.28 1.28 0 01-1.275-1.282c0-.71.572-1.286 1.275-1.286.704 0 1.276.578 1.276 1.286a1.28 1.28 0 01-1.276 1.282z"/></g><defs><clipPath id="clip0_1631_5595"><path fill="#fff" d="M0 0h44v44H0z"/></clipPath></defs></svg>