<svg width="46" height="44" fill="none" xmlns="http://www.w3.org/2000/svg"><g clip-path="url(#clip0_1631_5601)"><mask id="a" style="mask-type:luminance" maskUnits="userSpaceOnUse" x="0" y="0" width="45" height="44"><path d="M.833 0h44v44h-44V0z" fill="#fff"/></mask><g mask="url(#a)" fill="red"><path d="M9.078 42.572c-.163 0-.49-.163-.653-.326l-7.347-7.837a.79.79 0 010-1.143l8-8.163c.164-.163.98-.98 1.796-1.47.98-.49 2.286-.652 2.286-.652h16.98s1.306 0 2.612.653l5.877-5.878c.98-.98 3.266-2.122 5.225-.163.653.653.98 1.47.98 2.286 0 1.632-1.143 2.775-1.307 2.938L28.18 38.49c-.163.163-.326.163-.653.163l-14.204.163-3.755 3.266c-.163.326-.326.489-.49.489zM2.71 33.919l6.367 6.694 3.429-2.94c.163-.162.327-.162.49-.162l14.204-.163L42.385 22c.326-.163.816-.98.816-1.796 0-.326-.163-.816-.49-1.143-1.306-1.306-2.776 0-2.94.163l-5.876 5.715c.49.653.653 1.47.653 2.285 0 1.633-.817 2.94-2.286 3.592-.98.49-2.122.49-2.122.49h-8.98c-.49 0-.816-.326-.816-.816 0-.49.326-.816.816-.816h8.98c.326 0 2.775-.164 2.775-2.45 0-.653-.163-1.306-.653-1.632-.653-.816-2.122-.816-2.122-.816H13.323s-.816.163-1.632.49c-.49.326-1.143.979-1.47 1.142l-7.51 7.51zm18.775-14.04c-.163 0-.326 0-.49-.164-2.938-2.45-4.734-6.04-4.734-9.796 0-3.755 1.633-7.347 4.735-9.796a1.04 1.04 0 01.98 0c2.938 2.45 4.734 6.04 4.734 9.796 0 3.756-1.633 7.347-4.735 9.796-.163 0-.326.164-.49.164zm0-18.123c-2.285 2.123-3.591 4.898-3.591 8 0 3.102 1.306 6.04 3.59 8 2.287-2.122 3.593-4.898 3.593-8 0-3.102-1.307-5.877-3.592-8z"/><path d="M22.302 19.062c-.49 0-.652-.163-.817-.49-.162-.326 0-.653.165-.816 2.122-2.122 3.428-4.898 3.428-7.837V9.43c0-.164.163-.49.326-.654 2.285-2.122 5.387-3.265 8.49-3.265h.163c.49 0 .816.327.816.817v.326c0 6.857-5.713 12.407-12.57 12.407zm4.409-9.306c0 2.939-.816 5.55-2.45 7.674 4.899-.817 8.817-5.062 8.98-10.286-2.45.163-4.735.98-6.53 2.612z"/></g></g><defs><clipPath id="clip0_1631_5601"><path fill="#fff" transform="translate(.5)" d="M0 0h45v44H0z"/></clipPath></defs></svg>